<svg width="1440" height="720" viewBox="0 0 1440 720" fill="none" xmlns="http://www.w3.org/2000/svg">
<path d="M2169.13 485.885L1008.1 1153.69L286.825 737.245L1447.82 69.437L2169.13 485.885Z" fill="#937B6A"/>
<g style="mix-blend-mode:multiply" opacity="0.2">
<path d="M1046.83 685.447C1032.72 693.159 1030.6 699.079 1046.83 707.687C1063.05 716.295 1069.52 711.143 1082.16 705.895C1094.8 700.647 1110.19 690.567 1096.91 681.223C1079.6 669.063 1072.2 671.591 1046.86 685.447H1046.83Z" fill="#A8846C"/>
</g>
<g style="mix-blend-mode:multiply" opacity="0.4">
<path d="M1438.98 98.7185L649.449 555.231L899.465 699.55L1689 243.071L1438.98 98.7185Z" fill="#775945"/>
</g>
<path d="M1494.31 390.063L789.826 797.125L791.427 799.896L1495.91 392.834L1494.31 390.063Z" fill="white"/>
<path d="M1408.97 87.0739L1410.73 77.0579L1407.27 74.9459C1407.08 74.7859 1406.83 74.6579 1406.6 74.5299L1406.47 74.4339C1405.45 74.0179 1404.17 74.1139 1402.79 74.9139C1399.4 76.8659 1396.62 82.1779 1396.62 86.6899V133.858L1400.3 136.162L1401.16 131.234L1408.97 126.722V87.0739Z" fill="#FBB63D"/>
<path d="M1400.3 136.132V88.9635C1400.3 84.4515 1403.08 79.1395 1406.47 77.1875C1409.87 75.2355 1412.65 77.3155 1412.65 81.8595V129.028L1400.33 136.164L1400.3 136.132Z" fill="#FFC553"/>
<path d="M1298.12 149.888L1299.88 139.872L1296.42 137.76C1296.23 137.6 1295.98 137.472 1295.75 137.344L1295.62 137.248C1294.6 136.832 1293.32 136.928 1291.95 137.728C1288.55 139.68 1285.77 144.992 1285.77 149.504V196.672L1289.45 198.976L1290.31 194.048L1298.12 189.536V149.888Z" fill="#FBB63D"/>
<path d="M1289.45 198.946V151.778C1289.45 147.266 1292.23 141.954 1295.63 140.002C1299.02 138.05 1301.8 140.13 1301.8 144.674V191.842L1289.48 198.978L1289.45 198.946Z" fill="#FFC553"/>
<path d="M1174.67 222.239L1176.43 212.223L1172.97 210.111C1172.78 209.951 1172.52 209.823 1172.3 209.695L1172.17 209.599C1171.15 209.183 1169.87 209.279 1168.49 210.079C1165.1 212.031 1162.31 217.343 1162.31 221.855V269.023L1165.99 271.327L1166.86 266.399L1174.67 261.887V222.239Z" fill="#FBB63D"/>
<path d="M1166.03 271.329V224.161C1166.03 219.649 1168.81 214.337 1172.2 212.385C1175.59 210.433 1178.38 212.513 1178.38 217.057V264.225L1166.06 271.361L1166.03 271.329Z" fill="#FFC553"/>
<path d="M1384.33 88.5104L1386.09 78.4944L1382.63 76.3824C1382.44 76.2224 1382.19 76.0944 1381.96 75.9664L1381.83 75.8704C1380.81 75.4544 1379.53 75.5504 1378.15 76.3504C1374.76 78.3024 1371.98 83.6144 1371.98 88.1264V147.614L1375.66 149.918L1376.52 132.67L1384.33 128.158V88.5104Z" fill="#FBB63D"/>
<path d="M1375.69 149.918V90.4302C1375.69 85.9182 1378.47 80.6062 1381.87 78.6542C1385.26 76.7022 1388.04 78.7822 1388.04 83.3262V142.814L1375.72 149.95L1375.69 149.918Z" fill="#FFC553"/>
<path d="M1324.71 122.848L1326.47 112.832L1323.02 110.72C1322.83 110.56 1322.57 110.432 1322.35 110.304L1322.22 110.208C1321.19 109.792 1319.91 109.888 1318.54 110.688C1315.15 112.64 1312.36 117.952 1312.36 122.464V181.952L1316.04 184.256L1316.91 167.008L1324.71 162.496V122.848Z" fill="#FBB63D"/>
<path d="M1316.04 184.225V124.737C1316.04 120.225 1318.82 114.913 1322.22 112.961C1325.61 111.009 1328.39 113.089 1328.39 117.633V177.121L1316.07 184.257L1316.04 184.225Z" fill="#FFC553"/>
<path d="M1200.23 192.929L1201.99 182.913L1198.54 180.801C1198.35 180.641 1198.09 180.513 1197.87 180.385L1197.74 180.289C1196.71 179.873 1195.43 179.969 1194.06 180.769C1190.67 182.721 1187.88 188.033 1187.88 192.545V252.033L1191.56 254.337L1192.43 237.089L1200.23 232.577V192.929Z" fill="#FBB63D"/>
<path d="M1191.56 254.307V194.819C1191.56 190.307 1194.35 184.995 1197.74 183.043C1201.13 181.091 1203.91 183.171 1203.91 187.715V247.203L1191.59 254.339L1191.56 254.307Z" fill="#FFC553"/>
<path d="M1672.04 204.288L1380.97 372.352L1152.3 240.352L1443.4 72.2883L1672.04 204.288Z" fill="#74CACE"/>
<path d="M1658.6 196.608L1367.5 364.64L1164.27 247.04L1455.34 78.9758L1658.6 196.608Z" fill="#563B3A"/>
<path d="M1380.97 372.351L1152.3 240.351V276.383L1380.97 408.415V372.351Z" fill="#2EA09D"/>
<path d="M1672.04 204.289L1380.97 372.353V408.417L1672.04 240.353V204.289Z" fill="#53B7B7"/>
<path d="M1410.92 75.6777C1410.92 75.6777 1410.6 75.4857 1410.41 75.3897L1409.96 75.1337C1408.75 74.6537 1407.24 74.7817 1405.61 75.7417C1405.29 75.9337 1404.97 76.1897 1404.65 76.4137C1401.48 78.8137 1398.92 83.4857 1398.31 87.9977C1398.22 88.6377 1398.19 89.2777 1398.19 89.9177C1398.19 92.7017 1399.05 94.6857 1400.46 95.6777L1626.03 227.23L1628.91 221.118L1634.54 209.15L1635.75 206.59L1410.89 75.6777H1410.92Z" fill="#8D8181"/>
<path opacity="0.3" d="M1404.65 76.4162C1403.91 76.9922 1403.21 77.6642 1402.54 78.4642C1401.16 80.0962 1400.01 82.1442 1399.24 84.2882C1398.79 85.5042 1398.47 86.7522 1398.31 88.0002L1628.87 221.12L1630.44 217.792L1633.32 211.712L1634.54 209.152L1404.65 76.4162Z" fill="#E7DCDC"/>
<path opacity="0.3" d="M1402.54 78.4629C1401.16 80.0949 1400.01 82.1429 1399.24 84.2869L1630.47 217.791L1633.35 211.711L1402.57 78.4629H1402.54Z" fill="#E7DCDC"/>
<path d="M1300.52 138.498C1300.52 138.498 1300.2 138.306 1300.01 138.21L1299.56 137.954C1298.35 137.474 1296.84 137.602 1295.21 138.562C1294.89 138.754 1294.57 139.01 1294.25 139.234C1291.08 141.634 1288.52 146.306 1287.91 150.818C1287.82 151.458 1287.79 152.098 1287.79 152.738C1287.79 155.522 1288.65 157.506 1290.06 158.498L1515.63 290.05L1518.51 283.938L1524.14 271.97L1525.35 269.41L1300.49 138.498H1300.52Z" fill="#8D8181"/>
<path opacity="0.3" d="M1294.28 139.266C1293.55 139.842 1292.84 140.514 1292.17 141.314C1290.79 142.946 1289.64 144.994 1288.87 147.138C1288.43 148.354 1288.11 149.602 1287.95 150.85L1518.51 283.97L1520.07 280.642L1522.95 274.562L1524.17 272.002L1294.28 139.266Z" fill="#E7DCDC"/>
<path opacity="0.3" d="M1292.17 141.313C1290.79 142.945 1289.64 144.993 1288.87 147.137L1520.11 280.641L1522.99 274.561L1292.2 141.313H1292.17Z" fill="#E7DCDC"/>
<path d="M1176.91 211.36C1176.91 211.36 1176.58 211.168 1176.39 211.072L1175.95 210.816C1174.73 210.336 1173.22 210.464 1171.59 211.424C1171.27 211.616 1170.95 211.872 1170.63 212.096C1167.47 214.496 1164.9 219.168 1164.3 223.68C1164.2 224.32 1164.17 224.96 1164.17 225.6C1164.17 228.384 1165.03 230.368 1166.44 231.36L1392.01 362.912L1394.89 356.8L1400.52 344.832L1401.74 342.272L1176.87 211.36H1176.91Z" fill="#8D8181"/>
<path opacity="0.3" d="M1170.67 212.097C1169.93 212.673 1169.23 213.345 1168.55 214.145C1167.18 215.777 1166.03 217.825 1165.26 219.969C1164.81 221.185 1164.49 222.433 1164.33 223.681L1394.89 356.801L1396.46 353.473L1399.34 347.393L1400.55 344.833L1170.67 212.097Z" fill="#E7DCDC"/>
<path opacity="0.3" d="M1168.55 214.145C1167.18 215.777 1166.02 217.825 1165.26 219.969L1396.49 353.473L1399.37 347.393L1168.58 214.145H1168.55Z" fill="#E7DCDC"/>
<path d="M1396.87 362.464C1400.97 360.096 1404.33 353.696 1404.33 348.256C1404.33 342.784 1400.97 340.256 1396.87 342.624C1392.78 344.992 1389.42 351.392 1389.42 356.832C1389.42 362.304 1392.78 364.832 1396.87 362.464Z" fill="#7A6D6D"/>
<path d="M1397.64 359.615C1400.39 358.015 1402.63 353.727 1402.63 350.047C1402.63 346.367 1400.39 344.671 1397.64 346.271C1394.89 347.871 1392.65 352.159 1392.65 355.839C1392.65 359.519 1394.89 361.215 1397.64 359.615Z" fill="white"/>
<path d="M1403.69 357.057L1405.45 347.041L1401.99 344.929C1401.8 344.769 1401.55 344.641 1401.32 344.513L1401.19 344.417C1400.17 344.001 1398.89 344.097 1397.51 344.897C1394.12 346.849 1391.34 352.161 1391.34 356.673V403.841L1395.02 406.145L1395.88 401.217L1403.69 396.705V357.057Z" fill="#FBB63D"/>
<path d="M1395.02 406.114V358.946C1395.02 354.434 1397.8 349.122 1401.19 347.17C1404.59 345.218 1407.37 347.298 1407.37 351.842V399.01L1395.05 406.146L1395.02 406.114Z" fill="#FFC553"/>
<path d="M1648.27 182.69C1648.27 182.69 1520.84 256.258 1432.75 307.106C1408.68 320.994 1399.08 327.17 1384.11 335.33C1372.97 341.378 1273.61 396.994 1273.61 396.994L1090.89 291.33C1090.89 291.33 1187.75 237.186 1201.13 229.698C1215.4 221.666 1225 215.906 1247.63 202.85C1335.66 152.002 1465.55 77.0262 1465.55 77.0262L1648.27 182.69Z" fill="white"/>
<path opacity="0.5" d="M1247.62 202.847L1430.79 308.447L1415.91 318.431L1234.31 210.559L1247.62 202.847Z" fill="#C8C0C0"/>
<path opacity="0.5" d="M1372.07 130.913L1555.24 236.513L1539.21 245.857L1358.76 138.625L1372.07 130.913Z" fill="#C8C0C0"/>
<path opacity="0.5" d="M1431.34 96.3856L1614.5 201.986L1598.47 211.298L1418.02 104.098L1431.34 96.3856Z" fill="#C8C0C0"/>
<path d="M1386.34 76.9899C1386.34 76.9899 1386.02 76.7979 1385.83 76.7019L1385.38 76.4459C1384.17 75.9659 1382.66 76.0939 1381.03 77.0539C1380.71 77.2459 1380.39 77.5019 1380.07 77.7259C1376.9 80.1259 1374.34 84.7979 1373.74 89.3099C1373.64 89.9499 1373.61 90.5899 1373.61 91.2299C1373.61 94.0139 1374.47 95.9979 1375.88 96.9899L1601.45 228.542L1604.33 222.43L1609.96 210.462L1611.18 207.902L1386.31 76.9899H1386.34Z" fill="#8D8181"/>
<path opacity="0.3" d="M1380.07 77.7583C1379.34 78.3343 1378.63 79.0063 1377.96 79.8063C1376.59 81.4383 1375.43 83.4863 1374.67 85.6303C1374.22 86.8463 1373.9 88.0943 1373.74 89.3423L1604.3 222.462L1605.87 219.134L1608.75 213.054L1609.96 210.494L1380.07 77.7583Z" fill="#E7DCDC"/>
<path opacity="0.3" d="M1377.96 79.805C1376.58 81.437 1375.43 83.485 1374.66 85.629L1605.9 219.133L1608.78 213.053L1377.99 79.805H1377.96Z" fill="#E7DCDC"/>
<path d="M1326.7 111.776C1326.7 111.776 1326.38 111.584 1326.19 111.488L1325.74 111.232C1324.52 110.752 1323.02 110.88 1321.39 111.84C1321.07 112.032 1320.75 112.288 1320.43 112.512C1317.26 114.912 1314.7 119.584 1314.09 124.096C1313.99 124.736 1313.96 125.376 1313.96 126.016C1313.96 128.8 1314.83 130.784 1316.23 131.776L1541.8 263.328L1544.68 257.216L1550.31 245.248L1551.53 242.688L1326.67 111.776H1326.7Z" fill="#8D8181"/>
<path opacity="0.3" d="M1320.46 112.544C1319.72 113.12 1319.02 113.792 1318.35 114.592C1316.97 116.224 1315.82 118.272 1315.05 120.416C1314.6 121.632 1314.28 122.88 1314.12 124.128L1544.68 257.248L1546.25 253.92L1549.13 247.84L1550.35 245.281L1320.46 112.544Z" fill="#E7DCDC"/>
<path opacity="0.3" d="M1318.35 114.561C1316.97 116.193 1315.82 118.241 1315.05 120.385L1546.28 253.889L1549.16 247.809L1318.38 114.561H1318.35Z" fill="#E7DCDC"/>
<path d="M1203.4 182.208C1203.4 182.208 1203.08 182.016 1202.89 181.92L1202.44 181.664C1201.23 181.184 1199.72 181.312 1198.09 182.272C1197.77 182.464 1197.45 182.72 1197.13 182.944C1193.96 185.344 1191.4 190.016 1190.79 194.528C1190.7 195.168 1190.67 195.808 1190.67 196.448C1190.67 199.232 1191.53 201.216 1192.94 202.208L1418.51 333.76L1421.39 327.648L1427.02 315.68L1428.23 313.12L1203.37 182.208H1203.4Z" fill="#8D8181"/>
<path opacity="0.3" d="M1197.13 182.976C1196.39 183.552 1195.69 184.224 1195.02 185.024C1193.64 186.656 1192.49 188.704 1191.72 190.848C1191.27 192.064 1190.95 193.312 1190.79 194.56L1421.35 327.68L1422.92 324.352L1425.8 318.272L1427.02 315.712L1197.13 182.976Z" fill="#E7DCDC"/>
<path opacity="0.3" d="M1195.02 185.023C1193.64 186.655 1192.49 188.703 1191.72 190.847L1422.95 324.351L1425.83 318.271L1195.05 185.023H1195.02Z" fill="#E7DCDC"/>
<path d="M1423.37 333.342C1427.47 330.974 1430.83 324.574 1430.83 319.134C1430.83 313.662 1427.47 311.134 1423.37 313.502C1419.27 315.87 1415.91 322.27 1415.91 327.71C1415.91 333.182 1419.27 335.71 1423.37 333.342Z" fill="#7A6D6D"/>
<path d="M1424.14 330.463C1426.89 328.863 1429.13 324.575 1429.13 320.895C1429.13 317.215 1426.89 315.519 1424.14 317.119C1421.39 318.719 1419.15 323.007 1419.15 326.687C1419.15 330.367 1421.39 332.063 1424.14 330.463Z" fill="white"/>
<path d="M1430.15 327.458L1431.91 317.442L1428.46 315.33C1428.27 315.17 1428.01 315.042 1427.79 314.914L1427.66 314.818C1426.63 314.402 1425.35 314.498 1423.98 315.298C1420.59 317.25 1417.8 322.562 1417.8 327.074V386.562L1421.48 388.866L1422.35 371.618L1430.15 367.106V327.458Z" fill="#FBB63D"/>
<path d="M1421.48 388.866V329.378C1421.48 324.866 1424.27 319.554 1427.66 317.602C1431.05 315.65 1433.83 317.73 1433.83 322.274V381.762L1421.51 388.898L1421.48 388.866Z" fill="#FFC553"/>
<g style="mix-blend-mode:multiply" opacity="0.4">
<path d="M610.185 691.837C657.036 691.837 695.017 672.195 695.017 647.965C695.017 623.735 657.036 604.093 610.185 604.093C563.334 604.093 525.353 623.735 525.353 647.965C525.353 672.195 563.334 691.837 610.185 691.837Z" fill="#775945"/>
</g>
<g style="mix-blend-mode:multiply" opacity="0.4">
<path d="M498.505 625.47C547.088 625.47 586.473 605.098 586.473 579.966C586.473 554.835 547.088 534.462 498.505 534.462C449.922 534.462 410.537 554.835 410.537 579.966C410.537 605.098 449.922 625.47 498.505 625.47Z" fill="#775945"/>
</g>
<path d="M575.241 572.833V370.913H534.089V610.657C558.601 603.361 575.241 589.153 575.241 572.833Z" fill="#E0D5D5"/>
<path d="M475.113 370.912H417.609V572.832C417.609 581.472 422.313 589.536 430.345 596.288C440.649 604.928 456.489 611.424 475.113 614.272C481.897 615.296 489.033 615.872 496.425 615.872C510.057 615.872 522.889 613.984 534.089 610.656V370.912H475.113Z" fill="#F2EBEB"/>
<path opacity="0.8" d="M430.345 370.912V596.256C440.649 604.896 456.489 611.392 475.113 614.24V370.88H430.345V370.912Z" fill="white"/>
<path d="M496.425 415.297C539.954 415.297 575.241 396.027 575.241 372.257C575.241 348.487 539.954 329.217 496.425 329.217C452.896 329.217 417.609 348.487 417.609 372.257C417.609 396.027 452.896 415.297 496.425 415.297Z" fill="white"/>
<path d="M496.425 408.577C536.631 408.577 569.225 391.714 569.225 370.913C569.225 350.112 536.631 333.249 496.425 333.249C456.219 333.249 423.625 350.112 423.625 370.913C423.625 391.714 456.219 408.577 496.425 408.577Z" fill="#F2EBEB"/>
<path d="M496.425 400.961C528.502 400.961 554.505 387.508 554.505 370.913C554.505 354.318 528.502 340.865 496.425 340.865C464.348 340.865 438.345 354.318 438.345 370.913C438.345 387.508 464.348 400.961 496.425 400.961Z" fill="white"/>
<path d="M496.425 389.76C519.7 389.76 538.569 380.576 538.569 369.248C538.569 357.919 519.7 348.736 496.425 348.736C473.15 348.736 454.281 357.919 454.281 369.248C454.281 380.576 473.15 389.76 496.425 389.76Z" fill="#DFD6D6"/>
<path d="M523.017 369.474C523.017 377.506 511.113 384.002 496.425 384.002C481.737 384.002 469.833 377.506 469.833 369.474C469.833 361.442 481.737 354.946 496.425 354.946C511.113 354.946 523.017 361.442 523.017 369.474Z" fill="#563B3A"/>
<path d="M519.977 369.475C519.977 376.291 509.321 381.795 496.169 381.795C483.017 381.795 472.361 376.291 472.361 369.475C472.361 362.659 483.017 357.155 496.169 357.155C509.321 357.155 519.977 362.659 519.977 369.475Z" fill="#3F2A28"/>
<path d="M523.017 587.581V593.597C523.017 593.597 528.009 592.925 534.089 590.909C540.137 588.893 544.489 587.197 544.489 587.197V581.181C544.489 581.181 540.169 582.877 534.089 584.893C528.041 586.909 523.017 587.581 523.017 587.581Z" fill="#FB3A3A"/>
<path d="M523.017 557.694V563.71C523.017 563.71 528.009 563.038 534.089 561.022C540.137 559.006 544.489 557.31 544.489 557.31V551.294C544.489 551.294 540.169 552.99 534.089 555.006C528.009 557.022 523.017 557.694 523.017 557.694Z" fill="#FB3A3A"/>
<path d="M523.017 527.294V533.31C523.017 533.31 528.009 532.638 534.089 530.622C540.169 528.606 544.489 526.91 544.489 526.91V520.894C544.489 520.894 540.169 522.59 534.089 524.606C528.041 526.622 523.017 527.294 523.017 527.294Z" fill="#FB3A3A"/>
<path d="M523.017 497.375V503.391C523.017 503.391 528.009 502.719 534.089 500.703C540.137 498.687 544.489 496.991 544.489 496.991V490.975C544.489 490.975 540.169 492.671 534.089 494.687C528.009 496.703 523.017 497.375 523.017 497.375Z" fill="#FB3A3A"/>
<path d="M523.017 467.165V473.181C523.017 473.181 528.009 472.509 534.089 470.493C540.137 468.477 544.489 466.781 544.489 466.781V460.765C544.489 460.765 540.169 462.461 534.089 464.477C528.041 466.493 523.017 467.165 523.017 467.165Z" fill="#FB3A3A"/>
<path d="M523.017 437.278V443.294C523.017 443.294 528.009 442.622 534.089 440.606C540.169 438.59 544.489 436.894 544.489 436.894V430.878C544.489 430.878 540.169 432.574 534.089 434.59C528.041 436.606 523.017 437.278 523.017 437.278Z" fill="#FB3A3A"/>
<path d="M1124.49 272.317L1131.08 275.933L1112.55 286.653L1105.99 283.005L1124.49 272.317Z" fill="#74CACE"/>
<path d="M1112.55 297.438L1096.14 306.974L1095.69 70.4943L1112.14 60.9583L1112.55 297.438Z" fill="#53B7B7"/>
<path d="M1105.45 57.2142L1112.14 60.9582L1095.69 70.4942L1089.07 66.7822L1105.45 57.2142Z" fill="#74CACE"/>
<path d="M1089.07 66.7826L1095.69 70.4946L1096.14 309.759L1089.51 306.847L1089.07 66.7826Z" fill="#2EA09D"/>
<path d="M1077.61 322.365L1131.11 291.357L1131.08 275.933L1077.58 306.909L1077.61 322.365Z" fill="#53B7B7"/>
<path d="M1089.55 292.573L1096.11 296.189L1077.58 306.909L1071.02 303.261L1089.55 292.573Z" fill="#74CACE"/>
<path d="M1071.02 303.261L1077.58 306.909L1077.61 322.365L1071.05 318.589L1071.02 303.261Z" fill="#2EA09D"/>
<path d="M1089.35 228.159L1096.01 231.903L932.841 324.703L926.185 320.991L1089.35 228.159Z" fill="#74CACE"/>
<path d="M933.161 343.391L1097.8 249.599L1096.01 231.903L932.841 324.703L933.161 343.391Z" fill="#53B7B7"/>
<path d="M933.161 343.39L926.505 339.646L926.185 320.99L932.841 324.702L933.161 343.39Z" fill="#2EA09D"/>
<path d="M945.225 375.933L951.785 379.517L933.257 390.269L926.697 386.621L945.225 375.933Z" fill="#74CACE"/>
<path d="M933.289 401.023L916.841 410.559L916.393 174.079L932.841 164.543L933.289 401.023Z" fill="#53B7B7"/>
<path d="M1105.45 57.2142L1112.14 60.9582L916.393 174.078L909.769 170.366L1105.45 57.2142Z" fill="#74CACE"/>
<path d="M909.769 170.367L916.393 174.079L916.841 413.343L910.217 410.431L909.769 170.367Z" fill="#2EA09D"/>
<path d="M898.345 425.95L951.817 394.974L951.785 379.518L898.313 410.494L898.345 425.95Z" fill="#53B7B7"/>
<path d="M910.249 396.157L916.809 399.773L898.313 410.493L891.721 406.845L910.249 396.157Z" fill="#74CACE"/>
<path d="M891.721 406.846L898.313 410.494L898.345 425.951L891.753 422.207L891.721 406.846Z" fill="#2EA09D"/>
<path d="M916.745 192.766L1111.56 80.0301L1112.14 60.9581L916.393 174.078L916.745 192.766Z" fill="#53B7B7"/>
<path d="M909.897 251.805L916.553 255.549L840.457 298.845L833.801 295.133L909.897 251.805Z" fill="#74CACE"/>
<path d="M840.777 317.533L918.345 273.245L916.553 255.549L840.457 298.845L840.777 317.533Z" fill="#53B7B7"/>
<path d="M840.777 317.533L834.121 313.789L833.801 295.133L840.457 298.845L840.777 317.533Z" fill="#2EA09D"/>
<path d="M1193.99 459.169L1011.08 353.825C1011.08 353.825 912.969 408.417 843.049 448.961L1026.12 554.209C1096.01 513.697 1193.99 459.169 1193.99 459.169Z" fill="#E0D5D5"/>
<path d="M1070.22 241.63C1069.9 241.374 1069.55 241.246 1069.23 241.054L1068.36 240.542C1065.87 239.582 1062.83 239.87 1059.53 241.79C1058.86 242.174 1058.25 242.686 1057.58 243.166C1051.18 247.998 1045.99 257.502 1044.81 266.622C1044.65 267.934 1044.52 269.246 1044.52 270.526C1044.52 276.126 1046.31 280.19 1049.13 282.206L1271.34 411.23L1289.74 368.862L1070.25 241.598L1070.22 241.63Z" fill="#8D8181"/>
<path opacity="0.3" d="M1057.55 243.199C1056.04 244.351 1054.6 245.759 1053.26 247.359C1050.47 250.655 1048.17 254.815 1046.63 259.167C1045.77 261.631 1045.1 264.159 1044.78 266.655L1275.59 399.359L1288.78 376.127L1057.55 243.199Z" fill="#E7DCDC"/>
<path opacity="0.3" d="M1053.29 247.328C1050.51 250.624 1048.2 254.783 1046.67 259.135L1282.15 394.528L1287.56 382.016L1053.29 247.328Z" fill="#E7DCDC"/>
<path d="M1280.59 410.269C1288.87 405.469 1295.63 392.509 1295.59 381.437C1295.59 370.397 1288.78 365.277 1280.49 370.077C1272.2 374.877 1265.45 387.837 1265.48 398.909C1265.48 409.949 1272.3 415.069 1280.59 410.269Z" fill="#7A6D6D"/>
<path d="M1282.15 404.446C1287.72 401.214 1292.27 392.478 1292.27 385.054C1292.27 377.63 1287.69 374.174 1282.12 377.406C1276.55 380.638 1272.01 389.374 1272.01 396.798C1272.01 404.222 1276.59 407.678 1282.15 404.446Z" fill="white"/>
<path d="M1309.39 206.913L1126.47 101.601C1126.47 101.601 1062.03 252.225 1062.06 271.713C1062.06 273.537 1061.67 275.329 1061.67 277.089C1061.67 282.753 1063.02 287.233 1065.23 290.337C1065.07 290.753 1064.91 291.169 1064.71 291.617C1082.03 301.409 1208.17 374.657 1226.41 385.409C1226.41 385.313 1226.41 385.249 1226.41 385.153L1249.42 398.497C1249.42 398.497 1245.48 395.649 1245.48 385.089C1245.45 359.489 1309.35 206.945 1309.35 206.945L1309.39 206.913Z" fill="#E0D5D5"/>
<path d="M931.561 175.454C931.561 175.454 931.241 175.262 931.049 175.166L930.601 174.91C929.385 174.43 927.881 174.59 926.249 175.518C925.929 175.71 925.609 175.966 925.289 176.19C922.121 178.59 919.561 183.262 918.985 187.774C918.889 188.414 918.857 189.054 918.857 189.694C918.857 192.478 919.721 194.462 921.129 195.454L1146.95 326.59L1149.83 320.478L1155.47 308.51L1156.68 305.95L931.593 175.454H931.561Z" fill="#8D8181"/>
<path opacity="0.3" d="M925.289 176.222C924.553 176.798 923.849 177.47 923.177 178.27C921.801 179.902 920.681 181.95 919.913 184.094C919.497 185.31 919.177 186.558 918.985 187.806L1149.8 320.51L1151.37 317.182L1154.22 311.102L1155.43 308.542L925.289 176.254V176.222Z" fill="#E7DCDC"/>
<path opacity="0.3" d="M923.177 178.27C921.801 179.902 920.681 181.95 919.913 184.094L1151.37 317.15L1154.22 311.07L923.177 178.238V178.27Z" fill="#E7DCDC"/>
<path d="M1151.78 326.175C1155.88 323.807 1159.21 317.407 1159.21 311.935C1159.21 306.463 1155.85 303.935 1151.75 306.335C1147.66 308.703 1144.33 315.103 1144.33 320.575C1144.33 326.047 1147.69 328.575 1151.78 326.175Z" fill="#7A6D6D"/>
<path d="M1152.55 323.293C1155.3 321.693 1157.54 317.405 1157.54 313.725C1157.54 310.045 1155.27 308.349 1152.52 309.949C1149.77 311.549 1147.53 315.837 1147.53 319.517C1147.53 323.197 1149.8 324.893 1152.55 323.293Z" fill="white"/>
<path d="M1111.72 74.7825C1111.72 74.7825 1111.4 74.5905 1111.21 74.4945L1110.76 74.2385C1109.55 73.7585 1108.04 73.9185 1106.41 74.8465C1106.09 75.0385 1105.77 75.2945 1105.45 75.5185C1102.28 77.9185 1099.72 82.5905 1099.15 87.1025C1099.05 87.7425 1099.02 88.3825 1099.02 89.0225C1099.02 91.8065 1099.88 93.7905 1101.29 94.7825L1327.11 225.919L1329.99 219.807L1335.63 207.839L1336.84 205.279L1111.75 74.7825H1111.72Z" fill="#8D8181"/>
<path opacity="0.3" d="M1105.45 75.5493C1104.71 76.1253 1104.01 76.7973 1103.34 77.5973C1101.96 79.2293 1100.84 81.2773 1100.07 83.4213C1099.66 84.6373 1099.34 85.8853 1099.15 87.1333L1329.96 219.837L1331.53 216.509L1334.38 210.429L1335.59 207.869L1105.45 75.5813V75.5493Z" fill="#E7DCDC"/>
<path opacity="0.3" d="M1103.34 77.5977C1101.96 79.2297 1100.84 81.2777 1100.07 83.4217L1331.53 216.478L1334.38 210.398L1103.34 77.5657V77.5977Z" fill="#E7DCDC"/>
<path d="M1331.95 225.504C1336.04 223.136 1339.37 216.736 1339.37 211.264C1339.37 205.792 1336.01 203.264 1331.91 205.664C1327.82 208.032 1324.49 214.432 1324.49 219.904C1324.49 225.376 1327.85 227.904 1331.95 225.504Z" fill="#7A6D6D"/>
<path d="M1332.71 222.622C1335.47 221.022 1337.71 216.734 1337.71 213.054C1337.71 209.374 1335.43 207.678 1332.68 209.278C1329.93 210.878 1327.69 215.166 1327.69 218.846C1327.69 222.526 1329.96 224.222 1332.71 222.622Z" fill="white"/>
<path d="M1023.08 108.061C1023.08 108.061 1022.83 107.901 1022.7 107.837L1022.38 107.645C1021.45 107.293 1020.3 107.389 1019.02 108.125C1018.76 108.285 1018.54 108.477 1018.28 108.637C1015.85 110.461 1013.9 114.077 1013.45 117.533C1013.39 118.045 1013.35 118.525 1013.35 119.005C1013.35 121.149 1014.03 122.685 1015.08 123.421L1241.74 255.133L1243.95 250.429L1248.27 241.213L1249.19 239.229L1023.11 107.997L1023.08 108.061Z" fill="#8D8181"/>
<path opacity="0.3" d="M1018.28 108.636C1017.71 109.084 1017.16 109.596 1016.65 110.204C1015.59 111.452 1014.73 113.02 1014.12 114.684C1013.8 115.612 1013.55 116.572 1013.42 117.532L1243.91 250.46L1245.1 247.9L1247.31 243.228L1248.23 241.244L1018.28 108.636Z" fill="#E7DCDC"/>
<path opacity="0.3" d="M1016.65 110.235C1015.59 111.483 1014.73 113.051 1014.12 114.715L1245.1 247.931L1247.31 243.259L1016.65 110.235Z" fill="#E7DCDC"/>
<path d="M1245.45 254.847C1248.59 253.023 1251.15 248.095 1251.15 243.903C1251.15 239.711 1248.55 237.759 1245.42 239.583C1242.28 241.407 1239.72 246.335 1239.72 250.527C1239.72 254.719 1242.31 256.671 1245.45 254.847Z" fill="#7A6D6D"/>
<path d="M1246.03 252.637C1248.14 251.421 1249.87 248.093 1249.87 245.277C1249.87 242.461 1248.14 241.149 1246.03 242.365C1243.91 243.581 1242.19 246.909 1242.19 249.725C1242.19 252.541 1243.91 253.853 1246.03 252.637Z" fill="white"/>
<path d="M980.105 295.231C979.785 294.975 979.433 294.847 979.113 294.655L978.249 294.143C975.753 293.183 972.713 293.471 969.417 295.391C968.745 295.775 968.137 296.287 967.465 296.767C961.065 301.599 955.881 311.103 954.697 320.223C954.537 321.535 954.409 322.847 954.409 324.127C954.409 329.727 956.201 333.791 959.017 335.807L1181.23 464.831L1199.63 422.463L980.137 295.199L980.105 295.231Z" fill="#8D8181"/>
<path opacity="0.3" d="M967.433 296.766C965.929 297.918 964.489 299.326 963.145 300.926C960.361 304.222 958.057 308.382 956.521 312.734C955.657 315.198 954.985 317.726 954.665 320.222L1185.48 452.926L1198.67 429.694L967.433 296.766Z" fill="#E7DCDC"/>
<path opacity="0.3" d="M963.145 300.929C960.361 304.225 958.057 308.385 956.521 312.737L1192.01 448.129L1197.42 435.617L963.145 300.929Z" fill="#E7DCDC"/>
<path d="M1190.47 463.84C1198.76 459.04 1205.51 446.08 1205.48 435.008C1205.48 423.968 1198.67 418.848 1190.38 423.648C1182.09 428.448 1175.34 441.408 1175.37 452.48C1175.37 463.52 1182.19 468.64 1190.47 463.84Z" fill="#7A6D6D"/>
<path d="M1192.01 458.047C1197.58 454.815 1202.12 446.079 1202.12 438.655C1202.12 431.231 1197.54 427.775 1191.98 431.007C1186.41 434.239 1181.86 442.975 1181.86 450.399C1181.86 457.823 1186.44 461.279 1192.01 458.047Z" fill="white"/>
<path d="M878.121 238.945L879.881 228.929L876.425 226.817C876.233 226.657 875.977 226.529 875.753 226.401L875.625 226.305C874.601 225.889 873.321 225.985 871.945 226.785C868.553 228.737 865.801 234.049 865.801 238.593L865.865 279.233L869.545 281.505L878.121 238.945Z" fill="#FBB63D"/>
<path d="M869.545 281.504L869.481 240.864C869.481 236.352 872.233 231.04 875.625 229.056C879.017 227.072 881.801 229.184 881.801 233.696L881.865 274.335L869.545 281.472V281.504Z" fill="#FFC553"/>
<path d="M1179.5 410.688C1179.5 410.688 1175.31 408.416 1166.92 411.488C1159.43 414.208 1068.49 452.736 1048.04 450.08C1022.6 435.456 873.033 348.48 862.121 342.336C950.057 291.328 996.585 305.376 996.585 305.376L1179.5 410.688Z" fill="#F2EBEB"/>
<path d="M882.601 227.999C882.601 227.999 882.281 227.807 882.089 227.711L881.641 227.455C880.425 226.975 878.921 227.135 877.289 228.063C876.969 228.255 876.649 228.511 876.329 228.735C873.161 231.135 870.601 235.807 870.025 240.319C869.929 240.959 869.897 241.599 869.897 242.239C869.897 245.023 870.761 247.007 872.169 247.999L1097.99 379.135L1100.87 373.023L1106.5 361.055L1107.72 358.495L882.633 227.999H882.601Z" fill="#8D8181"/>
<path opacity="0.3" d="M876.329 228.766C875.593 229.342 874.889 230.014 874.217 230.814C872.841 232.446 871.721 234.494 870.953 236.638C870.537 237.854 870.217 239.102 870.025 240.35L1100.84 373.054L1102.41 369.726L1105.26 363.646L1106.47 361.086L876.329 228.798V228.766Z" fill="#E7DCDC"/>
<path opacity="0.3" d="M874.217 230.815C872.841 232.447 871.721 234.495 870.953 236.639L1102.41 369.695L1105.26 363.615L874.217 230.783V230.815Z" fill="#E7DCDC"/>
<path d="M1102.82 378.72C1106.92 376.352 1110.25 369.952 1110.25 364.48C1110.25 359.008 1106.89 356.48 1102.79 358.88C1098.7 361.248 1095.37 367.648 1095.37 373.12C1095.37 378.592 1098.73 381.12 1102.82 378.72Z" fill="#7A6D6D"/>
<path d="M1103.59 375.838C1106.35 374.238 1108.59 369.95 1108.59 366.27C1108.59 362.59 1106.31 360.894 1103.56 362.494C1100.81 364.094 1098.57 368.382 1098.57 372.062C1098.57 375.742 1100.84 377.438 1103.59 375.838Z" fill="white"/>
<path d="M860.265 288.191C859.945 287.935 859.593 287.807 859.273 287.615L858.409 287.103C855.913 286.143 852.873 286.431 849.577 288.351C848.905 288.735 848.297 289.247 847.625 289.727C841.225 294.559 836.041 304.063 834.857 313.183C834.697 314.495 834.569 315.807 834.569 317.087C834.569 322.687 836.361 326.751 839.177 328.767L1061.39 457.791L1079.79 415.423L860.297 288.159L860.265 288.191Z" fill="#8D8181"/>
<path opacity="0.3" d="M847.625 289.726C846.121 290.878 844.681 292.286 843.337 293.886C840.553 297.182 838.249 301.342 836.713 305.694C835.849 308.158 835.177 310.686 834.857 313.182L1065.67 445.886L1078.86 422.654L847.625 289.726Z" fill="#E7DCDC"/>
<path opacity="0.3" d="M843.337 293.888C840.553 297.184 838.249 301.344 836.713 305.696L1072.2 441.088L1077.61 428.576L843.337 293.888Z" fill="#E7DCDC"/>
<path d="M1070.67 456.8C1078.95 452 1085.71 439.04 1085.67 427.968C1085.67 416.928 1078.86 411.808 1070.57 416.608C1062.28 421.408 1055.53 434.368 1055.56 445.44C1055.56 456.48 1062.38 461.6 1070.67 456.8Z" fill="#7A6D6D"/>
<path d="M1072.2 451.007C1077.77 447.775 1082.31 439.039 1082.31 431.615C1082.31 424.191 1077.74 420.735 1072.17 423.967C1066.6 427.199 1062.06 435.935 1062.06 443.359C1062.06 450.783 1066.63 454.239 1072.2 451.007Z" fill="white"/>
<path d="M1038.41 119.36C1038.06 119.488 1037.67 119.648 1037.32 119.872C1034.25 121.728 1028.75 126.624 1023.4 131.424C1006.35 146.72 948.905 190.176 948.905 190.176C944.137 193.888 879.657 267.904 858.025 303.84C870.665 313.152 1012.94 393.472 1043.08 410.432C1061.74 379.072 1129.7 300.224 1134.09 296.768C1134.06 296.768 1191.56 253.28 1208.58 238.016C1213.93 233.216 1217.54 229.888 1220.49 227.84C1221.61 227.072 1224.71 225.664 1225.96 225.088L1040.46 118.432C1039.15 119.008 1038.41 119.36 1038.41 119.36Z" fill="white"/>
<path d="M1306.22 190.946C1309.07 189.89 1311.21 190.338 1312.52 190.914L1127.91 84.0978C1127.91 84.0978 1124.49 82.0818 1115.4 85.7298C1098.18 92.6418 1050.83 113.794 1040.46 118.402L1225.96 225.058C1226.15 224.962 1226.28 224.898 1226.38 224.866C1234.79 221.154 1287.11 198.082 1306.18 190.914L1306.22 190.946Z" fill="white"/>
<path d="M1306.22 190.946C1309.07 189.89 1311.21 190.338 1312.52 190.914L1127.91 84.0978C1127.91 84.0978 1124.49 82.0818 1115.4 85.7298C1098.18 92.6418 1050.83 113.794 1040.46 118.402L1225.96 225.058C1226.15 224.962 1226.28 224.898 1226.38 224.866C1234.79 221.154 1287.11 198.082 1306.18 190.914L1306.22 190.946Z" fill="#F2EBEB"/>
<path d="M1110.12 372.576L1111.88 362.56L1108.43 360.448C1108.23 360.288 1107.98 360.16 1107.75 360.032L1107.63 359.936C1106.6 359.52 1105.32 359.616 1103.95 360.416C1100.55 362.368 1097.8 367.68 1097.8 372.224L1097.87 412.864L1101.55 415.136L1110.12 372.576Z" fill="#FBB63D"/>
<path d="M1101.54 415.135L1101.48 374.495C1101.48 369.983 1104.23 364.671 1107.62 362.687C1111.02 360.703 1113.8 362.815 1113.8 367.327L1113.86 407.967L1101.54 415.103V415.135Z" fill="#FFC553"/>
<path d="M1036.71 432.513C1036.71 422.689 1042.12 411.425 1047.95 403.137L861.961 297.601C856.521 304.577 854.313 311.265 853.289 319.169C853.065 320.961 852.905 322.785 852.905 324.545C852.905 332.257 855.369 337.825 859.209 340.609L1040.65 445.953C1040.65 445.953 1036.71 443.105 1036.71 432.545V432.513Z" fill="#F2EBEB"/>
<path d="M1355.69 407.487L1362.25 411.103L1343.72 421.823L1337.16 418.175L1355.69 407.487Z" fill="#74CACE"/>
<path d="M1343.75 432.607L1327.31 442.143L1326.89 205.663L1343.31 196.127L1343.75 432.607Z" fill="#53B7B7"/>
<path d="M1336.65 192.415L1343.3 196.127L1326.89 205.663L1320.23 201.951L1336.65 192.415Z" fill="#74CACE"/>
<path d="M1320.23 201.952L1326.89 205.664L1327.3 444.928L1320.68 442.016L1320.23 201.952Z" fill="#2EA09D"/>
<path d="M1308.81 457.534L1362.28 426.558L1362.25 411.102L1308.78 442.078L1308.81 457.534Z" fill="#53B7B7"/>
<path d="M1320.71 427.743L1327.3 431.359L1308.78 442.079L1302.18 438.431L1320.71 427.743Z" fill="#74CACE"/>
<path d="M1302.18 438.431L1308.78 442.079L1308.81 457.535L1302.22 453.791L1302.18 438.431Z" fill="#2EA09D"/>
<path d="M1320.52 363.358L1327.21 367.07L1164.01 459.902L1157.39 456.158L1320.52 363.358Z" fill="#74CACE"/>
<path d="M1164.33 478.558L1328.97 384.798L1327.21 367.07L1164.01 459.902L1164.33 478.558Z" fill="#53B7B7"/>
<path d="M1164.33 478.558L1157.67 474.814L1157.39 456.158L1164.01 459.902L1164.33 478.558Z" fill="#2EA09D"/>
<path d="M1176.39 511.102L1182.95 514.686L1164.46 525.438L1157.87 521.79L1176.39 511.102Z" fill="#74CACE"/>
<path d="M1164.46 536.223L1148.04 545.727L1147.59 309.247L1164.04 299.743L1164.46 536.223Z" fill="#53B7B7"/>
<path d="M1336.65 192.415L1343.31 196.127L1147.59 309.247L1140.94 305.535L1336.65 192.415Z" fill="#74CACE"/>
<path d="M1140.94 305.534L1147.59 309.246L1148.04 548.542L1141.39 545.598L1140.94 305.534Z" fill="#2EA09D"/>
<path d="M1129.51 561.119L1182.99 530.143L1182.95 514.687L1129.48 545.695L1129.51 561.119Z" fill="#53B7B7"/>
<path d="M1141.42 531.358L1148.01 534.942L1129.48 545.694L1122.92 542.046L1141.42 531.358Z" fill="#74CACE"/>
<path d="M1122.92 542.046L1129.48 545.694L1129.51 561.118L1122.95 557.374L1122.92 542.046Z" fill="#2EA09D"/>
<path d="M1147.91 327.936L1342.76 215.2L1343.31 196.128L1147.59 309.248L1147.91 327.936Z" fill="#53B7B7"/>
<path d="M1141.07 386.974L1147.75 390.718L1071.62 434.014L1065 430.302L1141.07 386.974Z" fill="#74CACE"/>
<path d="M1071.98 452.702L1149.51 408.414L1147.75 390.718L1071.62 434.014L1071.98 452.702Z" fill="#53B7B7"/>
<path d="M1071.98 452.701L1065.32 448.957L1065 430.301L1071.62 434.013L1071.98 452.701Z" fill="#2EA09D"/>
<path d="M882.569 418.912L889.129 422.528L870.601 433.216L864.041 429.536L882.569 418.912Z" fill="#74CACE"/>
<path d="M870.601 443.999L854.153 453.503V378.431L870.601 368.927V443.999Z" fill="#53B7B7"/>
<path d="M847.529 374.687L854.153 378.431V456.287L847.529 453.343V374.687Z" fill="#2EA09D"/>
<path d="M835.593 468.832L889.129 437.952V422.496L835.593 453.408V468.832Z" fill="#53B7B7"/>
<path d="M847.561 439.072L854.153 442.688L835.593 453.408L829.033 449.728L847.561 439.072Z" fill="#74CACE"/>
<path d="M829.033 449.727L835.593 453.407V468.831L829.033 465.087V449.727Z" fill="#2EA09D"/>
<path d="M863.945 365.185L870.601 368.929L700.521 465.793L693.865 462.049L863.945 365.185Z" fill="#74CACE"/>
<path d="M708.745 479.617L855.913 396.129L870.601 368.929L700.521 465.793L708.745 479.617Z" fill="#53B7B7"/>
<path d="M728.937 507.518L735.497 511.134L716.969 521.822L710.409 518.142L728.937 507.518Z" fill="#74CACE"/>
<path d="M716.969 532.607L700.521 542.111V465.791L716.969 456.287V532.607Z" fill="#53B7B7"/>
<path d="M693.865 462.046L700.521 465.79V544.894L693.865 541.95V462.046Z" fill="#2EA09D"/>
<path d="M681.961 557.438L735.497 526.558V511.102L681.961 542.014V557.438Z" fill="#53B7B7"/>
<path d="M693.929 527.677L700.521 531.293L681.961 542.013L675.401 538.333L693.929 527.677Z" fill="#74CACE"/>
<path d="M675.401 538.334L681.961 542.014V557.438L675.401 553.694V538.334Z" fill="#2EA09D"/>
<path d="M825.321 384.256C825.001 384 824.649 383.872 824.329 383.68L823.465 383.168C820.969 382.208 817.961 382.496 814.633 384.384C813.961 384.768 813.321 385.28 812.681 385.76C806.249 390.592 801.065 400.096 799.881 409.184C799.721 410.496 799.593 411.808 799.593 413.088C799.593 418.688 801.353 422.752 804.169 424.768L1026.15 554.208L1044.62 511.872L825.353 384.224L825.321 384.256Z" fill="#8D8181"/>
<path opacity="0.3" d="M812.681 385.758C811.177 386.91 809.737 388.319 808.393 389.887C805.609 393.183 803.305 397.31 801.737 401.694C800.873 404.158 800.201 406.687 799.881 409.183L1030.44 542.302L1043.66 519.102L812.681 385.727V385.758Z" fill="#E7DCDC"/>
<path opacity="0.3" d="M808.393 389.889C805.609 393.185 803.305 397.313 801.737 401.697L1036.97 537.505L1042.41 524.993L808.393 389.889Z" fill="#E7DCDC"/>
<path d="M1035.4 553.249C1043.69 548.449 1050.47 535.489 1050.47 524.449C1050.47 513.409 1043.69 508.257 1035.4 513.057C1027.11 517.857 1020.33 530.817 1020.33 541.857C1020.33 552.897 1027.11 558.049 1035.4 553.249Z" fill="#7A6D6D"/>
<path d="M1036.97 547.458C1042.54 544.226 1047.11 535.522 1047.11 528.098C1047.11 520.674 1042.54 517.218 1036.97 520.418C1031.4 523.65 1026.83 532.354 1026.83 539.778C1026.83 547.202 1031.4 550.658 1036.97 547.458Z" fill="white"/>
<path d="M849.577 388C849.161 387.648 848.649 387.456 848.201 387.2L846.985 386.496V386.56C843.529 385.184 839.337 385.568 834.761 388.192C833.833 388.736 832.969 389.44 832.073 390.112C828.809 392.576 825.801 395.904 823.209 399.712C818.697 406.336 815.433 414.528 814.377 422.496C814.153 424.32 813.993 426.112 813.993 427.872C813.993 435.616 816.425 441.216 820.329 444.032L1004.27 551.52L1000.97 531.456L1012.17 508.768L1015.24 502.528L1033.29 495.072L849.609 388H849.577Z" fill="white"/>
<path d="M1005.35 533.153C1005.35 522.113 1012.14 509.153 1020.42 504.353C1023.91 502.337 1027.11 502.113 1029.67 503.297L1029.77 503.329C1030.09 503.489 1030.41 503.681 1030.7 503.873L1039.91 509.249C1038.98 495.617 1030.02 489.569 1019.18 495.841C1007.72 502.465 998.345 520.353 998.345 535.649C998.345 550.945 1007.72 558.017 1019.18 551.393C1019.5 551.201 1019.82 550.977 1020.14 550.785L1011.53 545.761C1007.78 544.257 1005.35 539.777 1005.35 533.153Z" fill="#C6B6B6"/>
<path d="M748.937 428.764C748.617 428.508 748.265 428.38 747.945 428.188L747.081 427.676C744.585 426.716 741.577 427.004 738.249 428.892C737.577 429.276 736.937 429.788 736.297 430.268C729.865 435.1 724.681 444.604 723.497 453.692C723.337 455.004 723.209 456.316 723.209 457.596C723.209 463.196 724.969 467.26 727.785 469.276L949.769 598.716L969.065 556.86L748.969 428.7L748.937 428.764Z" fill="#8D8181"/>
<path opacity="0.3" d="M736.265 430.27C734.761 431.422 733.321 432.83 731.977 434.398C729.193 437.694 726.889 441.822 725.321 446.206C724.457 448.67 723.785 451.198 723.465 453.694L954.025 586.814L967.241 563.614L736.265 430.238V430.27Z" fill="#E7DCDC"/>
<path opacity="0.3" d="M732.009 434.397C729.225 437.693 726.921 441.821 725.353 446.205L960.585 582.013L966.025 569.501L732.009 434.397Z" fill="#E7DCDC"/>
<path d="M959.017 597.755C967.305 592.955 974.089 579.995 974.089 568.955C974.089 557.915 967.305 552.763 959.017 557.563C950.729 562.363 943.945 575.323 943.945 586.363C943.945 597.403 950.729 602.555 959.017 597.755Z" fill="#7A6D6D"/>
<path d="M960.553 591.966C966.121 588.734 970.697 580.03 970.697 572.606C970.697 565.182 966.121 561.726 960.553 564.926C954.985 568.158 950.409 576.862 950.409 584.286C950.409 591.71 954.985 595.166 960.553 591.934V591.966Z" fill="white"/>
<path d="M737.545 432.859C730.377 443.419 725.161 456.443 723.497 469.115C723.113 471.995 722.857 474.875 722.857 477.691C722.857 490.043 726.729 498.939 732.937 503.419L912.649 609.499L911.273 565.723L928.073 542.875L737.577 432.891L737.545 432.859Z" fill="white"/>
<path d="M946.185 527.677L956.553 517.405L779.497 414.205C778.825 413.661 778.025 413.341 777.289 412.925L775.369 411.805V411.901C769.865 409.725 763.177 410.301 755.913 414.493C754.441 415.325 753.065 416.477 751.657 417.533C746.473 421.437 741.673 426.717 737.545 432.829L932.329 545.277L946.217 527.645L946.185 527.677Z" fill="#F2EBEB"/>
<path d="M925.769 584.765C922.761 582.813 920.873 578.653 920.873 572.829C920.873 561.789 927.657 548.829 935.945 544.029C939.913 541.757 943.497 541.725 946.185 543.549L966.345 555.357C967.017 551.485 967.401 547.677 967.401 543.933C967.401 519.485 952.393 508.157 934.057 518.749C915.721 529.341 900.713 557.981 900.713 582.429C900.713 606.877 915.721 618.205 934.057 607.613C938.505 605.053 942.761 601.373 946.665 596.989L926.537 585.245C926.281 585.117 926.025 584.957 925.769 584.797V584.765Z" fill="#C6B6B6"/>
<path d="M1108.11 549.758L1114.67 553.374L1096.14 564.062L1089.55 560.414L1108.11 549.758Z" fill="#74CACE"/>
<path d="M1096.11 574.846L1079.66 584.35V509.278L1096.11 499.774V574.846Z" fill="#53B7B7"/>
<path d="M1073.03 505.532L1079.66 509.276V587.132L1073.03 584.188V505.532Z" fill="#2EA09D"/>
<path d="M1061.13 599.678L1114.67 568.798V553.374L1061.13 584.254V599.678Z" fill="#53B7B7"/>
<path d="M1073.1 569.949L1079.66 573.533L1061.13 584.253L1054.57 580.573L1073.1 569.949Z" fill="#74CACE"/>
<path d="M1054.57 580.574L1061.13 584.254V599.678L1054.57 595.934V580.574Z" fill="#2EA09D"/>
<path d="M1089.45 496.03L1096.11 499.774L926.025 596.638L919.401 592.894L1089.45 496.03Z" fill="#74CACE"/>
<path d="M934.249 610.462L1081.45 526.974L1096.11 499.774L926.025 596.638L934.249 610.462Z" fill="#53B7B7"/>
<path d="M954.473 638.362L961.033 641.978L942.473 652.666L935.913 649.018L954.473 638.362Z" fill="#74CACE"/>
<path d="M942.473 663.452L926.025 672.956V596.636L942.473 587.132V663.452Z" fill="#53B7B7"/>
<path d="M919.401 592.891L926.025 596.635V675.739L919.401 672.795V592.891Z" fill="#2EA09D"/>
<path d="M907.497 688.282L961.033 657.402V641.978L907.497 672.858V688.282Z" fill="#53B7B7"/>
<path d="M919.465 658.556L926.025 662.14L907.497 672.86L900.905 669.18L919.465 658.556Z" fill="#74CACE"/>
<path d="M900.905 669.179L907.497 672.859V688.283L900.905 684.539V669.179Z" fill="#2EA09D"/>
<path d="M888.489 512.382C888.489 512.382 882.985 519.39 878.889 527.07C875.017 534.366 873.609 539.582 873.609 539.582L880.265 543.518C880.265 543.518 881.865 538.59 885.705 531.326C889.833 523.582 895.305 516.606 895.305 516.606L888.457 512.382H888.489Z" fill="#FB3A3A"/>
<path d="M846.665 488.383C846.665 488.383 841.161 495.391 837.065 503.071C833.193 510.367 831.785 515.583 831.785 515.583L838.441 519.519C838.441 519.519 840.041 514.591 843.881 507.327C848.009 499.583 853.481 492.607 853.481 492.607L846.633 488.383H846.665Z" fill="#FB3A3A"/>
<path d="M804.841 464.382C804.841 464.382 799.337 471.39 795.241 479.07C791.369 486.366 789.961 491.582 789.961 491.582L796.617 495.518C796.617 495.518 798.217 490.59 802.057 483.326C806.185 475.582 811.657 468.606 811.657 468.606L804.809 464.382H804.841Z" fill="#FB3A3A"/>
<path d="M762.985 440.352C762.985 440.352 757.481 447.36 753.385 455.04C749.513 462.336 748.105 467.552 748.105 467.552L754.761 471.488C754.761 471.488 756.361 466.56 760.201 459.296C764.329 451.552 769.801 444.576 769.801 444.576L762.953 440.352H762.985Z" fill="#FB3A3A"/>
<g style="mix-blend-mode:multiply" opacity="0.4">
<path d="M1390.73 618.814L1258.98 694.879L1140.1 626.271L1271.85 550.206L1390.73 618.814Z" fill="#775945"/>
</g>
<path d="M1374.47 575.614L1262.31 640.35L1161.1 581.918L1273.26 517.182L1374.47 575.614Z" fill="#FFDAAB"/>
<path d="M1226.12 578.174L1198.57 594.078L1173.74 579.742L1201.29 563.838L1226.12 578.174Z" fill="white"/>
<path d="M1221.54 578.014L1210.47 584.414L1190.47 572.894L1201.54 566.494L1221.54 578.014Z" fill="#3F2A28"/>
<path d="M1374.47 575.613L1262.31 640.349V681.693L1374.47 616.957V575.613Z" fill="#F9C48C"/>
<path d="M1161.1 581.919V623.263L1262.31 681.695V640.351L1161.1 581.919Z" fill="#F4B67D"/>
<path d="M1279.72 672.03C1279.34 672.03 1279.02 671.71 1279.02 671.326V630.398L1178.15 572.158C1177.83 571.966 1177.7 571.55 1177.9 571.198C1178.09 570.878 1178.5 570.75 1178.86 570.942L1280.42 629.566V671.294C1280.42 671.678 1280.1 671.998 1279.72 671.998V672.03Z" fill="#F1EAEA"/>
<path d="M1320.62 648.383C1320.23 648.383 1319.91 648.063 1319.91 647.679V606.751L1219.05 548.511C1218.73 548.319 1218.6 547.903 1218.79 547.551C1218.98 547.231 1219.4 547.103 1219.75 547.295L1321.32 605.919V647.647C1321.32 648.031 1321 648.351 1320.62 648.351V648.383Z" fill="#F1EAEA"/>
<path d="M1357.06 627.807C1356.68 627.807 1356.36 627.487 1356.36 627.103V586.175L1255.5 527.935C1255.18 527.743 1255.05 527.327 1255.24 526.975C1255.43 526.655 1255.85 526.527 1256.2 526.719L1357.77 585.343V627.071C1357.77 627.455 1357.45 627.775 1357.06 627.775V627.807Z" fill="#F1EAEA"/>
<path d="M1161.1 581.919L1210.86 630.495L1262.31 640.351L1161.1 581.919Z" fill="#F9C48C"/>
<path d="M1161.1 623.264L1210.86 630.496L1262.31 681.696L1161.1 623.264Z" fill="#F9C48C"/>
<path d="M1374.47 524.734L1262.31 589.47L1161.1 531.038L1273.26 466.302L1374.47 524.734Z" fill="#FFDAAB"/>
<path d="M1226.12 527.294L1198.57 543.166L1173.74 528.83L1201.29 512.958L1226.12 527.294Z" fill="white"/>
<path d="M1221.54 527.135L1210.47 533.535L1190.47 521.983L1201.54 515.615L1221.54 527.135Z" fill="#3F2A28"/>
<path d="M1374.47 524.733L1262.31 589.469V630.813L1374.47 566.045V524.733Z" fill="#F9C48C"/>
<path d="M1161.1 531.039V572.383L1262.31 630.814V589.47L1161.1 531.039Z" fill="#F4B67D"/>
<path d="M1279.72 621.118C1279.34 621.118 1279.02 620.798 1279.02 620.414V579.486L1178.15 521.246C1177.83 521.054 1177.7 520.638 1177.9 520.286C1178.09 519.966 1178.5 519.838 1178.86 520.03L1280.42 578.654V620.382C1280.42 620.766 1280.1 621.086 1279.72 621.086V621.118Z" fill="#F1EAEA"/>
<path d="M1320.62 597.502C1320.23 597.502 1319.91 597.182 1319.91 596.798V555.87L1219.05 497.63C1218.73 497.438 1218.6 497.022 1218.79 496.67C1218.98 496.35 1219.4 496.222 1219.75 496.414L1321.32 555.038V596.766C1321.32 597.15 1321 597.47 1320.62 597.47V597.502Z" fill="#F1EAEA"/>
<path d="M1357.07 576.927C1356.68 576.927 1356.36 576.607 1356.36 576.223V535.295L1255.5 477.055C1255.18 476.863 1255.05 476.447 1255.24 476.095C1255.43 475.775 1255.85 475.647 1256.2 475.839L1357.77 534.463V576.191C1357.77 576.575 1357.45 576.895 1357.07 576.895V576.927Z" fill="#F1EAEA"/>
<path d="M1161.1 531.04L1210.86 579.616L1262.31 589.472L1161.1 531.04Z" fill="#F9C48C"/>
<path d="M1161.1 572.383L1210.86 579.615L1262.31 630.815L1161.1 572.383Z" fill="#F9C48C"/>
<path d="M683.913 638.112V505.376H645.545V673.376C668.393 666.56 683.913 653.344 683.913 638.112Z" fill="#D2C8C8"/>
<path d="M590.569 505.375H536.969V638.111C536.969 646.175 541.353 653.695 548.841 659.967C558.441 668.031 573.193 674.079 590.569 676.735C596.905 677.695 603.561 678.239 610.441 678.239C623.145 678.239 635.113 676.479 645.545 673.375V505.375H590.537H590.569Z" fill="#DFD6D6"/>
<path opacity="0.8" d="M548.841 505.375V659.999C558.441 668.063 573.193 674.111 590.569 676.767V505.375H548.841Z" fill="#F1EAEA"/>
<path d="M610.441 546.75C651.018 546.75 683.913 528.784 683.913 506.622C683.913 484.46 651.018 466.494 610.441 466.494C569.864 466.494 536.969 484.46 536.969 506.622C536.969 528.784 569.864 546.75 610.441 546.75Z" fill="#F1EAEA"/>
<path d="M610.441 540.477C647.926 540.477 678.313 524.76 678.313 505.373C678.313 485.985 647.926 470.269 610.441 470.269C572.956 470.269 542.569 485.985 542.569 505.373C542.569 524.76 572.956 540.477 610.441 540.477Z" fill="#DFD6D6"/>
<path d="M610.441 533.405C640.344 533.405 664.585 520.855 664.585 505.373C664.585 489.892 640.344 477.341 610.441 477.341C580.538 477.341 556.297 489.892 556.297 505.373C556.297 520.855 580.538 533.405 610.441 533.405Z" fill="#F1EAEA"/>
<path d="M649.737 503.807C649.737 514.367 632.137 522.911 610.441 522.911C588.745 522.911 571.145 514.367 571.145 503.807C571.145 493.247 588.745 484.703 610.441 484.703C632.137 484.703 649.737 493.247 649.737 503.807Z" fill="#DFD6D6"/>
<path d="M610.441 517.535C624.138 517.535 635.241 511.475 635.241 503.999C635.241 496.524 624.138 490.463 610.441 490.463C596.744 490.463 585.641 496.524 585.641 503.999C585.641 511.475 596.744 517.535 610.441 517.535Z" fill="#563B3A"/>
<path d="M632.393 503.999C632.393 510.335 622.441 515.487 610.185 515.487C597.929 515.487 587.977 510.335 587.977 503.999C587.977 497.663 597.929 492.511 610.185 492.511C622.441 492.511 632.393 497.663 632.393 503.999Z" fill="#3F2A28"/>
<path d="M635.241 651.904V657.504C635.241 657.504 639.913 656.864 645.545 654.976C651.177 653.088 655.241 651.52 655.241 651.52V645.92C655.241 645.92 651.209 647.488 645.545 649.376C639.881 651.264 635.241 651.904 635.241 651.904Z" fill="#FB3A3A"/>
<path d="M635.241 624.032V629.632C635.241 629.632 639.913 628.992 645.545 627.104C651.177 625.216 655.241 623.648 655.241 623.648V618.048C655.241 618.048 651.209 619.616 645.545 621.504C639.881 623.392 635.241 624.032 635.241 624.032Z" fill="#FB3A3A"/>
<path d="M635.241 595.136V600.736C635.241 600.736 639.913 600.096 645.545 598.208C651.209 596.32 655.241 594.752 655.241 594.752V589.152C655.241 589.152 651.209 590.72 645.545 592.608C639.881 594.496 635.241 595.136 635.241 595.136Z" fill="#FB3A3A"/>
<path d="M635.241 567.232V572.832C635.241 572.832 639.913 572.192 645.545 570.304C651.177 568.416 655.241 566.848 655.241 566.848V561.248C655.241 561.248 651.209 562.816 645.545 564.704C639.881 566.592 635.241 567.232 635.241 567.232Z" fill="#FB3A3A"/>
</svg>
