<svg width="1401" height="694" viewBox="0 0 1401 694" fill="none" xmlns="http://www.w3.org/2000/svg">
<path d="M1413.6 450.81L1367.27 451.087L1287.74 451.581L1267.04 451.704L1246.24 451.828V698.841C1246.24 712.569 1253.93 725.341 1267.04 735.891C1272.9 740.611 1279.87 744.868 1287.74 748.632C1309.02 758.782 1336.82 764.952 1367.27 764.952C1383.68 764.952 1399.32 763.162 1413.6 759.923C1457.44 749.99 1488.29 726.39 1488.29 698.841V450.347L1413.6 450.81Z" fill="#F2EBEB"/>
<path d="M1246.24 451.859V698.872C1246.24 712.6 1253.93 725.372 1267.04 735.923V451.736L1246.24 451.859Z" fill="#E0D5D5"/>
<path opacity="0.8" d="M1287.71 451.582V748.633C1308.99 758.783 1336.79 764.953 1367.24 764.953V451.088L1287.71 451.582Z" fill="white"/>
<path d="M1388.18 351.751H1346.35C1291.29 351.751 1246.24 396.791 1246.24 451.858C1246.24 488.353 1300.42 517.969 1367.27 517.969C1434.12 517.969 1488.29 488.384 1488.29 451.858C1488.29 396.791 1443.25 351.751 1388.18 351.751Z" fill="white"/>
<path d="M1453.28 393.984H1452.84C1448.49 370.261 1411.85 351.72 1367.24 351.72C1322.63 351.72 1285.98 370.261 1281.63 393.984H1281.2V398.118C1281.2 398.334 1281.2 398.519 1281.2 398.735C1281.2 424.68 1319.7 445.719 1367.24 445.719C1414.78 445.719 1453.28 424.68 1453.28 398.735C1453.28 398.519 1453.28 398.334 1453.28 398.118V393.984Z" fill="#6B5B5B"/>
<path d="M1367.27 440.968C1414.79 440.968 1453.31 419.933 1453.31 393.984C1453.31 368.035 1414.79 347 1367.27 347C1319.75 347 1281.23 368.035 1281.23 393.984C1281.23 419.933 1319.75 440.968 1367.27 440.968Z" fill="#8D8181"/>
<path d="M1488.11 505.6V517.323C1488.2 518.433 1488.29 519.575 1488.29 520.716C1488.29 557.211 1434.12 586.827 1367.27 586.827C1300.42 586.827 1246.24 557.242 1246.24 520.716C1246.24 520.13 1246.34 519.544 1246.37 518.927V506.71C1243.19 512.757 1241.49 519.112 1241.49 525.683C1241.49 563.72 1297.95 594.539 1367.55 594.539C1437.14 594.539 1493.6 563.72 1493.6 525.683C1493.6 518.68 1491.65 511.924 1488.11 505.569V505.6Z" fill="#352120"/>
<path d="M1488.11 609.994V621.717C1488.2 622.828 1488.29 623.969 1488.29 625.111C1488.29 661.606 1434.12 691.222 1367.27 691.222C1300.42 691.222 1246.24 661.637 1246.24 625.111C1246.24 624.525 1246.34 623.938 1246.37 623.321V611.105C1243.19 617.152 1241.49 623.507 1241.49 630.078C1241.49 668.115 1297.95 698.934 1367.55 698.934C1437.14 698.934 1493.6 668.115 1493.6 630.078C1493.6 623.075 1491.65 616.319 1488.11 609.964V609.994Z" fill="#352120"/>
<path d="M-58.9699 200.462L702.183 640.563L461.155 779.726L-299.967 339.625L-58.9699 200.462Z" fill="#826856"/>
<path d="M81.7972 232.636V250.591C81.7972 253.491 77.5091 255.805 72.2338 255.805C66.9585 255.805 62.6704 253.46 62.6704 250.591V232.636H81.7972Z" fill="#3F2A28"/>
<path d="M62.8865 233.747C62.8865 233.747 62.8866 233.623 62.8249 233.562L57.1177 211.658H74.1775C74.1775 211.658 87.9364 209.437 87.3503 211.658C86.8258 213.725 82.2293 231.217 81.6123 233.531C81.6123 233.592 81.6123 233.685 81.5506 233.747C80.5943 236.091 76.7997 237.85 72.234 237.85C67.6682 237.85 63.8429 236.091 62.9174 233.747H62.8865Z" fill="#2EA09D"/>
<path d="M-19.3895 186.453C-19.3895 186.453 -19.3895 186.33 -19.4512 186.268L-25.1584 164.365H-8.0986C-8.0986 164.365 5.6604 162.144 5.07426 164.365C4.54982 166.432 -0.0468311 183.924 -0.663824 186.237C-0.663824 186.299 -0.66379 186.392 -0.725489 186.453C-1.68183 188.798 -5.4763 190.556 -10.042 190.556C-14.6078 190.556 -18.4332 188.798 -19.3587 186.453H-19.3895Z" fill="#2EA09D"/>
<path d="M-263.75 157.424L-165.586 213.755L89.4481 66.51L-8.71552 10.1786L-263.75 157.424Z" fill="#74CACE"/>
<path d="M-165.586 213.755L89.4478 66.5094V219.4L-165.586 366.646V213.755Z" fill="#2EA09D"/>
<path d="M78.4037 85.082V216.471L-153.277 350.235V218.846L78.4037 85.082Z" fill="#DCD3D3"/>
<path d="M64.2441 128.302V201.508L-139.086 318.891V245.685L64.2441 128.302Z" fill="#352120"/>
<path d="M-232.715 113.925L-159.2 154.832L53.6313 31.9577L-19.9143 -8.94897L-232.715 113.925Z" fill="#74CACE"/>
<path d="M-243.081 72.4319L-159.385 119.015L82.9076 -20.8575L-0.787445 -67.4404L-243.081 72.4319Z" fill="white"/>
<path d="M-229.877 72.3708L-160.033 111.457L69.6733 -20.8259L-0.13942 -59.8816L-229.877 72.3708Z" fill="#BBB4B4"/>
<path d="M-159.2 154.831V194.318L53.6315 71.4132V31.9565L-159.2 154.831Z" fill="#3F2A28"/>
<path d="M82.9078 -20.8577L53.6315 31.9569L-159.2 154.831L-159.385 119.015L82.9078 -20.8577Z" fill="#F2EBEB"/>
<path d="M30.2168 -11.013C16.242 -2.49849 -16.5204 10.736 -31.5133 25.7906C-46.5062 40.8453 -63.6895 44.2387 -80.6876 49.3598C-97.6858 54.4808 -104.164 59.9412 -119.836 74.5948C-135.538 89.2484 -152.259 99.1511 -162.47 92.6727C-171.663 86.8421 -180.918 74.4714 -199.891 68.6716C-194.708 65.9569 -189.309 63.2421 -184.99 61.2986C-172.712 55.8073 -161.73 50.7171 -150.192 40.1666C-134.489 25.7906 -118.664 19.6516 -106.54 13.5742C-95.0944 7.83615 -75.8134 -3.14633 -66.2808 -11.6608C-50.9794 -25.3581 -42.4957 -22.4274 -31.143 -30.7568C-19.5436 -39.2713 -6.98782 -46.922 4.67336 -43.0349C18.8333 -38.3149 27.5329 -34.1811 37.4048 -27.6718C39.4409 -26.3453 41.261 -25.1113 42.9269 -23.9698C41.1993 -20.3604 37.6516 -15.4862 30.2168 -10.9513V-11.013Z" fill="#FFD998"/>
<path d="M-160.033 111.46L-218.462 78.7595C-218.462 78.7595 -209.516 73.7002 -199.891 68.6717C-180.949 74.4714 -171.663 86.8421 -162.47 92.6727C-152.259 99.1511 -135.538 89.2484 -119.836 74.5948C-104.133 59.9412 -97.6549 54.4808 -80.6876 49.3598C-63.6895 44.2388 -46.5063 40.8453 -31.5134 25.7907C-16.5204 10.7361 16.2419 -2.4676 30.2168 -11.0129C37.6207 -15.517 41.1684 -20.4221 42.9268 -24.0315C52.953 -17.1829 57.0868 -13.5735 57.0868 -13.5735L-160.002 111.429L-160.033 111.46Z" fill="#FFD998"/>
<path opacity="0.5" d="M-160.033 111.46L-218.462 78.7595C-218.462 78.7595 -209.516 73.7002 -199.891 68.6717C-180.949 74.4714 -171.663 86.8421 -162.47 92.6727C-152.259 99.1511 -135.538 89.2484 -119.836 74.5948C-104.133 59.9412 -97.6549 54.4808 -80.6876 49.3598C-63.6895 44.2388 -46.5063 40.8453 -31.5134 25.7907C-16.5204 10.7361 16.2419 -2.4676 30.2168 -11.0129C37.6207 -15.517 41.1684 -20.4221 42.9268 -24.0315C52.953 -17.1829 57.0868 -13.5735 57.0868 -13.5735L-160.002 111.429L-160.033 111.46Z" fill="#FFC553"/>
<path d="M64.2441 201.508L19.543 154.123L-139.086 245.685V318.891L64.2441 201.508Z" fill="#563B3A"/>
<path d="M41.5076 130.493L65.1692 116.826V105.906L41.5076 119.572V130.493Z" fill="#FB3A3A"/>
<path d="M142.633 221.965L140.658 210.797L144.515 208.422C144.731 208.237 145.008 208.082 145.255 207.959L145.409 207.866C146.551 207.404 147.97 207.496 149.512 208.391C153.307 210.581 156.392 216.504 156.392 221.533V274.132L152.289 276.692L151.332 271.201L142.633 266.172V221.934V221.965Z" fill="#FBB63D"/>
<path d="M152.289 276.692V224.093C152.289 219.034 149.204 213.142 145.409 210.952C141.615 208.761 138.53 211.106 138.53 216.165V268.764L152.289 276.692Z" fill="#FFC553"/>
<path d="M266.31 292.054L264.335 280.886L268.191 278.511C268.407 278.326 268.685 278.172 268.932 278.048L269.086 277.956C270.227 277.493 271.647 277.585 273.189 278.48C276.984 280.67 280.068 286.593 280.068 291.622V344.221L275.965 346.781L275.009 341.29L266.31 336.261V292.023V292.054Z" fill="#FBB63D"/>
<path d="M275.965 346.78V294.181C275.965 289.122 272.88 283.229 269.086 281.039C265.291 278.849 262.206 281.193 262.206 286.253V338.851L275.965 346.78Z" fill="#FFC553"/>
<path d="M403.991 372.756L402.017 361.589L405.873 359.213C406.089 359.028 406.366 358.874 406.613 358.751L406.767 358.658C407.909 358.195 409.328 358.288 410.871 359.182C414.665 361.373 417.75 367.296 417.75 372.324V424.923L413.647 427.484L412.691 421.992L403.991 416.964V372.725V372.756Z" fill="#FBB63D"/>
<path d="M413.647 427.484V374.885C413.647 369.826 410.562 363.933 406.768 361.743C402.973 359.553 399.888 361.897 399.888 366.957V419.555L413.647 427.484Z" fill="#FFC553"/>
<path d="M170.089 223.597L168.115 212.429L171.971 210.054C172.187 209.869 172.465 209.714 172.711 209.591L172.866 209.498C174.007 209.036 175.426 209.128 176.969 210.023C180.763 212.213 183.848 218.136 183.848 223.165V289.522L179.745 292.083L178.789 272.863L170.089 267.835V223.597Z" fill="#FBB63D"/>
<path d="M179.776 292.083V225.725C179.776 220.666 176.691 214.774 172.896 212.583C169.102 210.393 166.017 212.738 166.017 217.797V284.155L179.776 292.083Z" fill="#FFC553"/>
<path d="M236.601 261.882L234.627 250.715L238.483 248.34C238.699 248.154 238.976 248 239.223 247.877L239.377 247.784C240.519 247.321 241.938 247.414 243.481 248.309C247.275 250.499 250.36 256.422 250.36 261.451V327.808L246.257 330.369L245.301 311.149L236.601 306.121V261.882Z" fill="#FBB63D"/>
<path d="M246.288 330.369V264.011C246.288 258.952 243.203 253.06 239.408 250.869C235.614 248.679 232.529 251.023 232.529 256.083V322.44L246.288 330.369Z" fill="#FFC553"/>
<path d="M375.486 340.056L373.512 328.888L377.368 326.513C377.584 326.328 377.861 326.173 378.108 326.05L378.263 325.958C379.404 325.495 380.823 325.587 382.366 326.482C386.16 328.672 389.245 334.595 389.245 339.624V405.982L385.142 408.542L384.186 389.323L375.486 384.294V340.056Z" fill="#FBB63D"/>
<path d="M385.142 408.511V342.154C385.142 337.094 382.057 331.202 378.263 329.012C374.468 326.821 371.383 329.166 371.383 334.225V400.583L385.142 408.511Z" fill="#FFC553"/>
<path d="M-150.809 352.736L173.884 540.209L428.918 392.933L104.225 205.49L-150.809 352.736Z" fill="#74CACE"/>
<path d="M-135.816 344.129L188.877 531.603L415.591 400.399L90.8981 212.926L-135.816 344.129Z" fill="#563B3A"/>
<path d="M173.884 540.208L428.918 392.932V433.16L173.884 580.405V540.208Z" fill="#2EA09D"/>
<path d="M-150.809 352.738L173.884 540.211V580.408L-150.809 392.935V352.738Z" fill="#53B7B7"/>
<path d="M140.473 209.254C140.658 209.131 140.844 209.038 141.029 208.946L141.522 208.668C142.88 208.144 144.576 208.298 146.366 209.347C146.736 209.563 147.075 209.841 147.445 210.118C150.993 212.771 153.831 218.016 154.51 223.013C154.603 223.723 154.664 224.463 154.664 225.173C154.664 228.258 153.708 230.51 152.134 231.62L-99.4751 378.341L-102.684 371.524L-108.977 358.166L-110.334 355.297L140.473 209.285V209.254Z" fill="#8D8181"/>
<path opacity="0.3" d="M147.445 210.087C148.278 210.704 149.08 211.506 149.79 212.37C151.332 214.19 152.597 216.473 153.461 218.879C153.954 220.236 154.294 221.625 154.479 223.013L-102.715 371.492L-104.473 367.79L-107.681 361.003L-109.039 358.134L147.383 210.087H147.445Z" fill="#E7DCDC"/>
<path opacity="0.3" d="M149.79 212.371C151.332 214.191 152.597 216.474 153.461 218.88L-104.442 367.791L-107.65 361.004L149.79 212.371Z" fill="#E7DCDC"/>
<path d="M263.594 279.344C263.78 279.22 263.965 279.128 264.15 279.035L264.643 278.757C266.001 278.233 267.697 278.387 269.487 279.436C269.857 279.652 270.196 279.93 270.566 280.207C274.114 282.86 276.952 288.105 277.631 293.102C277.724 293.812 277.785 294.552 277.785 295.262C277.785 298.347 276.829 300.599 275.256 301.709L23.6459 448.43L20.4375 441.613L14.1443 428.255L12.7869 425.386L263.594 279.374V279.344Z" fill="#8D8181"/>
<path opacity="0.3" d="M270.566 280.176C271.399 280.793 272.201 281.595 272.911 282.459C274.453 284.279 275.718 286.562 276.582 288.968C277.076 290.325 277.415 291.714 277.6 293.102L20.4065 441.581L18.6481 437.879L15.4397 431.092L14.0823 428.223L270.505 280.176H270.566Z" fill="#E7DCDC"/>
<path opacity="0.3" d="M272.941 282.46C274.484 284.28 275.749 286.563 276.613 288.969L18.7095 437.88L15.5012 431.093L272.941 282.46Z" fill="#E7DCDC"/>
<path d="M18.2163 447.905C13.6505 445.283 9.91772 438.126 9.91772 432.048C9.91772 425.971 13.6505 423.133 18.2163 425.786C22.782 428.408 26.5148 435.565 26.5148 441.643C26.5148 447.72 22.782 450.558 18.2163 447.905Z" fill="#7A6D6D"/>
<path d="M17.3833 444.729C14.2984 442.97 11.7996 438.158 11.7996 434.055C11.7996 429.952 14.2984 428.07 17.3833 429.829C20.4683 431.587 22.9671 436.4 22.9671 440.503C22.9671 444.606 20.4683 446.487 17.3833 444.729Z" fill="white"/>
<path d="M10.658 441.859L8.68359 430.692L12.5398 428.316C12.7557 428.131 13.0335 427.977 13.2803 427.853L13.4345 427.761C14.5759 427.298 15.995 427.391 17.5375 428.285C21.332 430.476 24.4169 436.399 24.4169 441.427V494.026L20.314 496.586L19.3576 491.095L10.658 486.067V441.828V441.859Z" fill="#FBB63D"/>
<path d="M20.3142 496.586V443.988C20.3142 438.928 17.2292 433.036 13.4347 430.846C9.64017 428.655 6.55518 431 6.55518 436.059V488.658L20.3142 496.586Z" fill="#FFC553"/>
<path d="M401.492 360.602C401.678 360.478 401.863 360.386 402.048 360.293L402.541 360.016C403.899 359.491 405.595 359.645 407.385 360.694C407.755 360.91 408.094 361.188 408.465 361.466C412.012 364.119 414.85 369.363 415.529 374.361C415.622 375.07 415.683 375.811 415.683 376.52C415.683 379.605 414.727 381.857 413.154 382.968L161.544 529.689L158.336 522.871L152.042 509.513L150.685 506.644L401.492 360.633V360.602Z" fill="#8D8181"/>
<path opacity="0.3" d="M408.464 361.434C409.297 362.051 410.099 362.853 410.809 363.717C412.351 365.537 413.616 367.82 414.48 370.226C414.974 371.584 415.313 372.972 415.498 374.36L158.305 522.839L156.546 519.137L153.338 512.351L151.98 509.482L408.403 361.434H408.464Z" fill="#E7DCDC"/>
<path opacity="0.3" d="M410.809 363.718C412.352 365.538 413.616 367.821 414.48 370.227L156.577 519.139L153.369 512.352L410.809 363.718Z" fill="#E7DCDC"/>
<path d="M156.114 529.164C151.549 526.541 147.816 519.384 147.816 513.307C147.816 507.229 151.549 504.391 156.114 507.044C160.68 509.667 164.413 516.824 164.413 522.901C164.413 528.978 160.68 531.817 156.114 529.164Z" fill="#7A6D6D"/>
<path d="M155.251 525.987C152.166 524.229 149.667 519.416 149.667 515.313C149.667 511.21 152.166 509.328 155.251 511.087C158.335 512.845 160.834 517.658 160.834 521.761C160.834 525.864 158.335 527.746 155.251 525.987Z" fill="white"/>
<path d="M148.525 523.12L146.551 511.952L150.407 509.577C150.623 509.391 150.9 509.237 151.147 509.114L151.301 509.021C152.443 508.559 153.862 508.651 155.404 509.546C159.199 511.736 162.284 517.659 162.284 522.688V575.286L158.181 577.847L157.225 572.356L148.525 567.327V523.089V523.12Z" fill="#FBB63D"/>
<path d="M158.212 577.876V525.277C158.212 520.218 155.127 514.326 151.332 512.135C147.538 509.945 144.453 512.29 144.453 517.349V569.948L158.212 577.876Z" fill="#FFC553"/>
<path d="M108.791 227.67C156.207 255.034 251.594 310.101 322.579 351.1C347.814 365.661 358.519 372.109 374.468 381.055C389.369 389.415 404.207 407.616 404.207 407.616L200.384 525.493C200.384 525.493 182.769 505.657 170.367 498.901C153.647 489.8 142.942 482.92 116.103 467.403C46.2282 427.052 -45.8888 373.867 -93.243 346.534C-104.472 340.056 -118.231 327.747 -127.733 318.646L76.8928 200.492C90.0347 212.986 102.313 223.907 108.791 227.64V227.67Z" fill="white"/>
<path d="M-139.086 307.356V245.718L26.5461 150.084C26.5461 150.084 53.1385 177.911 76.9236 200.554L-127.702 318.709C-134.458 312.261 -139.055 307.387 -139.055 307.387L-139.086 307.356Z" fill="#F2EBEB"/>
<path d="M322.61 351.1L118.292 468.884L134.89 480.052L337.448 359.707L322.61 351.1Z" fill="#F2EBEB"/>
<path d="M183.786 270.892L-20.5308 388.676L-2.66879 399.072L198.656 279.499L183.786 270.892Z" fill="#F2EBEB"/>
<path d="M117.676 232.36L-86.6414 350.144L-68.7794 360.54L132.545 240.967L117.676 232.36Z" fill="#F2EBEB"/>
<path d="M167.899 210.734C168.084 210.611 168.269 210.518 168.454 210.426L168.948 210.148C170.305 209.624 172.002 209.778 173.791 210.827C174.161 211.043 174.501 211.321 174.871 211.598C178.419 214.251 181.257 219.496 181.935 224.493C182.028 225.203 182.09 225.943 182.09 226.653C182.09 229.738 181.133 231.99 179.56 233.1L-72.0496 379.821L-75.258 373.003L-81.5513 359.646L-82.9087 356.777L167.899 210.734Z" fill="#8D8181"/>
<path opacity="0.3" d="M174.871 211.567C175.704 212.184 176.506 212.986 177.215 213.85C178.758 215.67 180.023 217.953 180.886 220.359C181.38 221.716 181.719 223.104 181.904 224.493L-75.2891 372.972L-77.0475 369.27L-80.2559 362.483L-81.6133 359.614L174.809 211.567H174.871Z" fill="#E7DCDC"/>
<path opacity="0.3" d="M177.216 213.851C178.758 215.671 180.023 217.954 180.887 220.36L-77.0162 369.271L-80.2246 362.484L177.216 213.851Z" fill="#E7DCDC"/>
<path d="M234.411 249.542C234.596 249.419 234.781 249.326 234.966 249.234L235.46 248.956C236.817 248.432 238.514 248.586 240.303 249.635C240.673 249.851 241.013 250.128 241.383 250.406C244.931 253.059 247.769 258.304 248.447 263.301C248.54 264.011 248.602 264.751 248.602 265.461C248.602 268.546 247.645 270.798 246.072 271.908L-5.53769 418.629L-8.74608 411.811L-15.0394 398.453L-16.3967 395.584L234.411 249.542Z" fill="#8D8181"/>
<path opacity="0.3" d="M241.383 250.375C242.216 250.992 243.018 251.794 243.727 252.657C245.27 254.478 246.535 256.76 247.398 259.167C247.892 260.524 248.231 261.912 248.416 263.3L-8.77708 411.78L-10.5355 408.078L-13.7439 401.291L-15.1013 398.422L241.321 250.375H241.383Z" fill="#E7DCDC"/>
<path opacity="0.3" d="M243.727 252.658C245.27 254.479 246.535 256.761 247.398 259.168L-10.5046 408.079L-13.7129 401.292L243.727 252.658Z" fill="#E7DCDC"/>
<path d="M371.938 328.085C372.124 327.962 372.309 327.87 372.494 327.777L372.987 327.499C374.345 326.975 376.041 327.129 377.831 328.178C378.201 328.394 378.54 328.672 378.91 328.949C382.458 331.602 385.296 336.847 385.975 341.844C386.068 342.554 386.129 343.294 386.129 344.004C386.129 347.089 385.173 349.341 383.6 350.451L131.99 497.172L128.782 490.355L122.488 476.997L121.131 474.128L371.938 328.085Z" fill="#8D8181"/>
<path opacity="0.3" d="M378.91 328.948C379.743 329.565 380.545 330.367 381.255 331.231C382.797 333.051 384.062 335.334 384.926 337.74C385.42 339.098 385.759 340.486 385.944 341.874L128.751 490.354L126.992 486.652L123.784 479.865L122.427 476.996L378.849 328.948H378.91Z" fill="#E7DCDC"/>
<path opacity="0.3" d="M381.286 331.202C382.828 333.022 384.093 335.305 384.957 337.711L127.054 486.622L123.845 479.835L381.286 331.202Z" fill="#E7DCDC"/>
<path d="M126.591 496.68C122.025 494.058 118.292 486.901 118.292 480.824C118.292 474.746 122.025 471.908 126.591 474.561C131.157 477.183 134.89 484.34 134.89 490.418C134.89 496.495 131.157 499.333 126.591 496.68Z" fill="#7A6D6D"/>
<path d="M125.727 493.471C122.642 491.712 120.143 486.9 120.143 482.797C120.143 478.694 122.642 476.812 125.727 478.57C128.812 480.329 131.311 485.141 131.311 489.244C131.311 493.347 128.812 495.229 125.727 493.471Z" fill="white"/>
<path d="M119.002 490.139L117.028 478.971L120.884 476.596C121.1 476.41 121.378 476.256 121.625 476.133L121.779 476.04C122.92 475.578 124.339 475.67 125.882 476.565C129.676 478.755 132.761 484.678 132.761 489.707V556.064L128.658 558.625L127.702 539.405L119.002 534.377V490.139Z" fill="#FBB63D"/>
<path d="M128.658 558.594V492.237C128.658 487.177 125.573 481.285 121.779 479.095C117.984 476.904 114.899 479.249 114.899 484.308V550.666L128.658 558.594Z" fill="#FFC553"/>
<path d="M610.22 378.589L630.088 390.065L638.88 577.909L603.094 557.24L610.22 378.589Z" fill="#FFC553"/>
<path d="M646.407 573.558L638.88 577.907L630.088 390.064L637.646 385.745L646.407 573.558Z" fill="#FBB63D"/>
<path d="M610.221 378.588L617.748 374.27L637.646 385.746L630.088 390.065L610.221 378.588Z" fill="#FFCD78"/>
<path d="M663.344 518.987L661.37 507.819L665.226 505.444C665.442 505.259 665.719 505.105 665.966 504.981L666.12 504.889C667.262 504.426 668.681 504.518 670.223 505.413C674.018 507.603 677.103 513.527 677.103 518.555V580.871L673 583.432L672.043 568.254L663.344 563.225V518.987Z" fill="#FBB63D"/>
<path d="M673 583.401V521.085C673 516.026 669.915 510.134 666.12 507.943C662.326 505.753 659.241 508.097 659.241 513.157V575.473L673 583.401Z" fill="#FFC553"/>
<path d="M698.451 523.674L696.476 512.506L700.332 510.131C700.548 509.946 700.826 509.792 701.073 509.668L701.227 509.576C702.369 509.113 703.788 509.206 705.33 510.1C709.125 512.29 712.21 518.214 712.21 523.242V597.189L708.106 599.749L707.15 572.91L698.451 567.882V523.643V523.674Z" fill="#FBB63D"/>
<path d="M708.107 599.778V525.832C708.107 520.772 705.022 514.88 701.227 512.69C697.433 510.499 694.348 512.844 694.348 517.903V591.85L708.107 599.778Z" fill="#FFC553"/>
<path d="M722.298 554.554L720.323 543.386L724.18 541.011C724.396 540.826 724.673 540.672 724.92 540.548L725.074 540.456C726.216 539.993 727.635 540.085 729.177 540.98C732.972 543.17 736.057 549.094 736.057 554.122V615.266L731.954 617.826L730.997 603.79L722.298 598.761V554.523V554.554Z" fill="#FBB63D"/>
<path d="M731.984 617.856V556.712C731.984 551.652 728.899 545.76 725.105 543.57C721.31 541.379 718.225 543.724 718.225 548.783V609.927L731.984 617.856Z" fill="#FFC553"/>
<path d="M497.218 741.318L752.283 594.042V634.27L497.218 781.515V741.318Z" fill="#2EA09D"/>
<path d="M172.526 410.086L342.261 508.064V651.824L497.218 741.318V781.515L172.526 594.042V410.086Z" fill="#53B7B7"/>
<path d="M752.283 594.042L497.219 741.318L342.261 651.823L597.295 504.578L752.283 594.042Z" fill="#74CACE"/>
<path d="M427.591 262.809L597.295 360.818L342.261 508.064L172.526 410.085L427.591 262.809Z" fill="#74CACE"/>
<path d="M338.281 492.606L338.96 492.236L570.054 358.842L425.863 275.579L425.185 275.98L194.09 409.374L338.281 492.637V492.606ZM564.717 358.842L338.281 489.521L199.427 409.343L425.863 278.664L564.717 358.811V358.842Z" fill="#2EA09D"/>
<path d="M597.295 360.818V504.577L342.261 651.822V508.063L597.295 360.818Z" fill="#2EA09D"/>
<path d="M593.346 368.87V402.342L347.875 544.003V510.562L593.346 368.87Z" fill="white"/>
<path d="M588.873 376.613V399.719L352.348 536.26V513.184L588.873 376.613Z" fill="#352120"/>
<path d="M588.873 399.721L568.543 388.368L352.348 513.186V536.261L588.873 399.721Z" fill="#563B3A"/>
<path d="M974.524 748.476L795.966 860.923L498.946 711.241L703.571 593.117L974.524 748.476Z" fill="white"/>
<path d="M257.547 633.314V571.337L257.115 571.09L180.392 526.79V588.767L180.824 589.014L257.547 633.314ZM255.758 572.386V630.229L182.151 587.718V529.875L255.758 572.386Z" fill="#74CACE"/>
<path d="M270.289 484.309L324.892 515.837V560.631L270.289 529.103V484.309Z" fill="white"/>
<path d="M288.706 508.741L320.975 527.344V553.813L288.706 535.179V508.741Z" fill="#FFC553"/>
<path d="M294.166 548.198L326.435 566.832V580.066L294.166 561.433V548.198Z" fill="#352120"/>
<path d="M284.849 506.058V532.527L274.206 526.388V499.95L284.849 506.058Z" fill="#FB3A3A"/>
<path d="M274.206 491.714L320.974 518.707V521.576L274.206 494.552V491.714Z" fill="#563B3A"/>
<path d="M382.427 614.772L596.554 491.126L616.884 537.154L402.726 660.768L382.427 614.772Z" fill="#E0D5D5"/>
<path d="M625.769 492.946C625.862 493.655 625.923 494.365 625.923 495.043C625.923 498.067 624.967 500.257 623.455 501.337L377.028 645.034L373.882 638.34L367.712 625.26L367.558 624.951L618.859 480.266C622.314 482.889 625.121 488.01 625.769 492.915V492.946Z" fill="#8D8181"/>
<path d="M612.01 479.466C612.164 479.343 612.38 479.25 612.565 479.158L613.028 478.88C614.355 478.356 616.021 478.51 617.779 479.528C618.149 479.744 618.489 480.021 618.828 480.268L367.527 624.953L366.354 622.485L611.979 479.466H612.01Z" fill="#8D8181"/>
<path opacity="0.5" d="M612.01 479.466C612.164 479.343 612.38 479.25 612.565 479.158L613.028 478.88C614.355 478.356 616.021 478.51 617.779 479.528C618.149 479.744 618.489 480.021 618.828 480.268L368.236 624.953L366.354 622.485L611.979 479.466H612.01Z" fill="#7A6D6D"/>
<path opacity="0.3" d="M618.859 480.298C619.661 480.915 620.463 481.686 621.172 482.519C622.684 484.308 623.918 486.529 624.751 488.874C625.214 490.2 625.584 491.558 625.769 492.915L373.882 638.34L372.154 634.7L369.038 628.067L367.712 625.26L618.859 480.267V480.298Z" fill="#E7DCDC"/>
<path opacity="0.3" d="M621.173 482.521C622.684 484.31 623.918 486.531 624.751 488.876L372.154 634.702L369.038 628.069L621.173 482.49V482.521Z" fill="#E7DCDC"/>
<path d="M371.722 644.572C367.249 641.981 363.578 635.009 363.578 629.024C363.578 623.07 367.249 620.293 371.722 622.885C376.195 625.476 379.866 632.448 379.866 638.433C379.866 644.387 376.195 647.163 371.722 644.572Z" fill="#7A6D6D"/>
<path d="M370.889 641.427C367.866 639.699 365.429 634.979 365.429 630.969C365.429 626.958 367.897 625.107 370.889 626.835C373.881 628.562 376.35 633.282 376.35 637.293C376.35 641.303 373.881 643.154 370.889 641.427Z" fill="white"/>
<path d="M612.01 451.393C612.164 451.27 612.38 451.177 612.565 451.085L613.028 450.807C614.355 450.283 616.021 450.437 617.779 451.455C618.149 451.671 618.489 451.949 618.828 452.195C622.283 454.818 625.09 459.939 625.738 464.844C625.831 465.553 625.893 466.263 625.893 466.942C625.893 469.965 624.936 472.155 623.425 473.235L376.998 616.933L373.851 610.238L367.681 597.158L366.354 594.351L611.979 451.332L612.01 451.393Z" fill="#8D8181"/>
<path opacity="0.3" d="M618.859 452.224C619.661 452.841 620.463 453.613 621.172 454.446C622.684 456.235 623.918 458.456 624.751 460.801C625.214 462.127 625.584 463.485 625.769 464.842L373.882 610.267L372.154 606.627L369.038 599.994L367.712 597.187L618.859 452.194V452.224Z" fill="#E7DCDC"/>
<path opacity="0.3" d="M621.173 454.449C622.684 456.238 623.918 458.459 624.751 460.804L372.154 606.63L369.038 599.997L621.173 454.418V454.449Z" fill="#E7DCDC"/>
<path d="M371.722 616.5C367.249 613.909 363.578 606.937 363.578 600.952C363.578 594.998 367.249 592.221 371.722 594.813C376.195 597.404 379.866 604.376 379.866 610.361C379.866 616.315 376.195 619.091 371.722 616.5Z" fill="#7A6D6D"/>
<path d="M370.889 613.355C367.866 611.627 365.429 606.907 365.429 602.897C365.429 598.886 367.897 597.035 370.889 598.763C373.881 600.491 376.35 605.211 376.35 609.221C376.35 613.231 373.881 615.082 370.889 613.355Z" fill="white"/>
<path d="M580.544 447.537L599.763 459.137C604.73 462.006 608.771 469.749 608.771 476.351C608.771 479.035 608 481.595 606.889 482.952C604.73 484.032 402.819 601.94 402.819 601.94C404.67 600.767 405.873 598.299 405.873 594.752C405.873 588.15 401.801 580.376 396.865 577.538L376.905 565.136L580.575 447.568L580.544 447.537Z" fill="white"/>
<path d="M625.769 437.202C625.862 437.911 625.923 438.621 625.923 439.3C625.923 442.323 624.967 444.513 623.455 445.593L377.028 589.291L373.882 582.596L367.712 569.516L367.558 569.208L618.859 424.523C622.314 427.145 625.121 432.266 625.769 437.171V437.202Z" fill="#8D8181"/>
<path d="M612.01 423.722C612.164 423.599 612.38 423.506 612.565 423.414L613.028 423.136C614.355 422.612 616.021 422.766 617.779 423.784C618.149 424 618.489 424.278 618.828 424.524L367.527 569.209L366.354 566.741L611.979 423.722H612.01Z" fill="#8D8181"/>
<path opacity="0.5" d="M612.01 423.722C612.164 423.599 612.38 423.506 612.565 423.414L613.028 423.136C614.355 422.612 616.021 422.766 617.779 423.784C618.149 424 618.489 424.278 618.828 424.524L368.236 569.209L366.354 566.741L611.979 423.722H612.01Z" fill="#7A6D6D"/>
<path opacity="0.3" d="M618.859 424.554C619.661 425.171 620.463 425.942 621.172 426.775C622.684 428.564 623.918 430.785 624.751 433.13C625.214 434.456 625.584 435.814 625.769 437.171L373.882 582.596L372.154 578.956L369.038 572.323L367.712 569.516L618.859 424.523V424.554Z" fill="#E7DCDC"/>
<path opacity="0.3" d="M621.173 426.776C622.684 428.566 623.918 430.787 624.751 433.132L372.154 578.958L369.038 572.325L621.173 426.746V426.776Z" fill="#E7DCDC"/>
<path d="M371.722 588.828C367.249 586.236 363.578 579.264 363.578 573.279C363.578 567.325 367.249 564.549 371.722 567.14C376.195 569.732 379.866 576.704 379.866 582.688C379.866 588.642 376.195 591.419 371.722 588.828Z" fill="#7A6D6D"/>
<path d="M370.889 585.683C367.866 583.955 365.429 579.235 365.429 575.224C365.429 571.214 367.897 569.363 370.889 571.091C373.881 572.818 376.35 577.538 376.35 581.549C376.35 585.559 373.881 587.41 370.889 585.683Z" fill="white"/>
<path d="M612.01 395.647C612.164 395.523 612.38 395.431 612.565 395.338L613.028 395.06C614.355 394.536 616.021 394.69 617.779 395.708C618.149 395.924 618.489 396.202 618.828 396.449C622.283 399.071 625.09 404.192 625.738 409.097C625.831 409.807 625.893 410.516 625.893 411.195C625.893 414.218 624.936 416.408 623.425 417.488L376.998 561.186L373.851 554.491L367.681 541.411L366.354 538.604L611.979 395.585L612.01 395.647Z" fill="#8D8181"/>
<path opacity="0.3" d="M618.859 396.479C619.661 397.096 620.463 397.867 621.172 398.7C622.684 400.49 623.918 402.711 624.751 405.055C625.214 406.382 625.584 407.739 625.769 409.097L373.882 554.522L372.154 550.882L369.038 544.249L367.712 541.442L618.859 396.448V396.479Z" fill="#E7DCDC"/>
<path opacity="0.3" d="M621.173 398.702C622.684 400.491 623.918 402.712 624.751 405.057L372.154 550.883L369.038 544.251L621.173 398.671V398.702Z" fill="#E7DCDC"/>
<path d="M371.722 560.753C367.249 558.162 363.578 551.19 363.578 545.205C363.578 539.251 367.249 536.474 371.722 539.066C376.195 541.657 379.866 548.629 379.866 554.614C379.866 560.568 376.195 563.344 371.722 560.753Z" fill="#7A6D6D"/>
<path d="M370.889 557.608C367.866 555.881 365.429 551.161 365.429 547.15C365.429 543.14 367.897 541.289 370.889 543.016C373.881 544.744 376.35 549.464 376.35 553.474C376.35 557.485 373.881 559.336 370.889 557.608Z" fill="white"/>
<path d="M569.777 385.435L599.763 403.359C604.729 406.228 608.771 413.971 608.771 420.573C608.771 423.257 608 425.817 606.889 427.175C604.729 428.255 402.819 546.162 402.819 546.162C404.67 544.99 405.873 542.522 405.873 538.974C405.873 532.372 401.801 524.598 396.865 521.76L365.46 502.88L569.808 385.435H569.777Z" fill="white"/>
<path d="M355.002 525.465L374.9 536.941L383.661 724.754L347.875 704.115L355.002 525.465Z" fill="#FFC553"/>
<path d="M391.188 720.434L383.661 724.753L374.9 536.94L382.427 532.59L391.188 720.434Z" fill="#FBB63D"/>
<path d="M355.002 525.465L362.529 521.115L382.427 532.591L374.9 536.941L355.002 525.465Z" fill="#FFCD78"/>
<path d="M648.042 500.137C648.381 499.859 648.782 499.705 649.153 499.489L650.14 498.934C652.916 497.854 656.31 498.162 659.981 500.291C660.721 500.723 661.431 501.309 662.14 501.834C669.297 507.232 675.066 517.814 676.424 527.963C676.609 529.444 676.732 530.894 676.732 532.313C676.732 538.575 674.758 543.08 671.642 545.362L424.043 689.77L403.435 642.57L648.011 500.168L648.042 500.137Z" fill="#8D8181"/>
<path opacity="0.3" d="M662.171 501.834C663.868 503.099 665.472 504.672 666.953 506.461C670.069 510.133 672.629 514.76 674.388 519.634C675.375 522.38 676.084 525.187 676.455 527.994L419.261 676.474L404.515 650.591L662.171 501.834Z" fill="#E7DCDC"/>
<path opacity="0.3" d="M666.953 506.461C670.069 510.133 672.629 514.76 674.388 519.634L411.981 671.137L405.903 657.193L666.953 506.492V506.461Z" fill="#E7DCDC"/>
<path d="M413.708 688.659C404.453 683.322 396.895 668.853 396.895 656.544C396.895 644.204 404.453 638.497 413.708 643.834C422.963 649.171 430.521 663.64 430.521 675.949C430.521 688.289 422.963 693.996 413.708 688.659Z" fill="#7A6D6D"/>
<path d="M411.981 682.181C405.749 678.603 400.659 668.854 400.659 660.586C400.659 652.288 405.749 648.432 411.981 652.041C418.212 655.62 423.302 665.368 423.302 673.636C423.302 681.934 418.212 685.79 411.981 682.181Z" fill="white"/>
<path d="M403.188 672.77L401.214 661.602L405.07 659.227C405.286 659.042 405.564 658.887 405.811 658.764L405.965 658.671C407.106 658.209 408.525 658.301 410.068 659.196C413.862 661.386 416.947 667.309 416.947 672.338V734.654L412.844 737.215L411.888 722.037L403.188 717.008V672.77Z" fill="#FBB63D"/>
<path d="M412.875 737.215V674.898C412.875 669.839 409.79 663.947 405.996 661.756C402.201 659.566 399.116 661.911 399.116 666.97V729.286L412.875 737.215Z" fill="#FFC553"/>
<path d="M688.363 507.816C688.61 507.631 688.918 507.507 689.165 507.353L689.874 506.952C691.88 506.181 694.348 506.397 697.001 507.939C697.525 508.248 698.05 508.68 698.574 509.05C703.757 512.968 707.952 520.618 708.909 527.991C709.063 529.04 709.125 530.12 709.125 531.138C709.125 535.673 707.706 538.943 705.423 540.578L451.407 688.687L434.871 655.339L688.301 507.785L688.363 507.816Z" fill="#8D8181"/>
<path opacity="0.3" d="M698.574 509.05C699.808 509.975 700.95 511.117 702.029 512.381C704.281 515.065 706.163 518.397 707.397 521.914C708.107 523.888 708.631 525.955 708.909 527.96L443.139 681.407L433.051 662.311L698.574 509.019V509.05Z" fill="#E7DCDC"/>
<path opacity="0.3" d="M702.029 512.381C704.281 515.065 706.163 518.397 707.397 521.913L440.424 676.038L436.753 665.518L701.998 512.381H702.029Z" fill="#E7DCDC"/>
<path d="M443.139 688.287C436.445 684.43 430.953 673.941 430.953 665.026C430.953 656.08 436.445 651.946 443.139 655.833C449.833 659.689 455.325 670.178 455.325 679.093C455.325 688.04 449.833 692.174 443.139 688.287Z" fill="#7A6D6D"/>
<path d="M441.905 683.597C437.401 681.006 433.699 673.941 433.699 667.956C433.699 661.941 437.37 659.164 441.905 661.755C446.409 664.347 450.111 671.411 450.111 677.396C450.111 683.412 446.44 686.188 441.905 683.597Z" fill="white"/>
<path d="M667.94 519.447C670.285 517.473 673.617 517.257 677.319 519.385C684.414 523.488 690.214 534.563 690.214 544.034V561.217L477.135 684.554V667.772C477.135 658.301 471.336 647.226 464.24 643.123C461.433 641.519 458.841 641.241 456.744 642.074L667.94 519.416V519.447Z" fill="white"/>
<path d="M689.936 540.208L476.672 662.867C476.672 662.867 477.783 670.548 476.827 676.471C547.256 637.261 655.199 574.513 690.244 553.844C690.892 549.124 689.936 540.208 689.936 540.208Z" fill="#F2EBEB"/>
<path d="M433.483 679.247L431.509 668.08L435.365 665.704C435.581 665.519 435.858 665.365 436.105 665.241L436.259 665.149C437.401 664.686 438.82 664.779 440.362 665.673C444.157 667.864 447.242 673.787 447.242 678.815V752.762L443.139 755.322L442.183 728.483L433.483 723.455V679.216V679.247Z" fill="#FBB63D"/>
<path d="M443.139 755.352V681.405C443.139 676.346 440.054 670.453 436.26 668.263C432.465 666.073 429.38 668.417 429.38 673.477V747.423L443.139 755.352Z" fill="#FFC553"/>
<path d="M706.471 537.404C706.811 537.126 707.212 536.972 707.582 536.756L708.569 536.201C711.346 535.121 714.739 535.43 718.41 537.558C719.151 537.99 719.86 538.576 720.57 539.101C727.727 544.499 733.496 555.081 734.853 565.23C735.038 566.711 735.162 568.161 735.162 569.58C735.162 575.843 733.187 580.347 730.072 582.629L482.472 727.037L461.865 679.837L706.441 537.435L706.471 537.404Z" fill="#8D8181"/>
<path opacity="0.3" d="M720.601 539.101C722.298 540.366 723.902 541.939 725.383 543.729C728.498 547.4 731.059 552.027 732.817 556.901C733.805 559.647 734.514 562.454 734.884 565.262L477.691 713.741L462.945 687.858L720.601 539.101Z" fill="#E7DCDC"/>
<path opacity="0.3" d="M725.383 543.729C728.498 547.4 731.059 552.027 732.818 556.902L470.41 708.404L464.333 694.46L725.383 543.76V543.729Z" fill="#E7DCDC"/>
<path d="M472.138 725.926C462.883 720.589 455.325 706.121 455.325 693.812C455.325 681.472 462.883 675.765 472.138 681.102C481.393 686.439 488.951 700.907 488.951 713.216C488.951 725.556 481.393 731.263 472.138 725.926Z" fill="#7A6D6D"/>
<path d="M470.41 719.479C464.179 715.9 459.088 706.152 459.088 697.884C459.088 689.586 464.179 685.729 470.41 689.339C476.642 692.917 481.732 702.666 481.732 710.934C481.732 719.232 476.642 723.088 470.41 719.479Z" fill="white"/>
<path d="M462.173 708.371L460.198 697.204L464.055 694.828C464.271 694.643 464.548 694.489 464.795 694.366L464.949 694.273C466.091 693.81 467.51 693.903 469.052 694.797C472.847 696.988 475.932 702.911 475.932 707.939V769.083L471.829 771.644L470.872 757.607L462.173 752.579V708.34V708.371Z" fill="#FBB63D"/>
<path d="M1151.41 431.311C1151.41 431.311 1148.36 440.874 1147.16 443.929C1145.95 446.983 1145.8 448.679 1145.8 448.679L1125.93 455.867C1124.3 455.867 1123.31 454.88 1121.67 455.004C1118.22 455.281 1117.88 455.343 1116.77 455.682C1115.66 455.991 1116.09 457.502 1116.92 457.595C1117.6 457.657 1119.58 456.7 1120.84 458.397C1121.3 459.014 1119.08 459.909 1116.43 460.834C1113.78 461.76 1110.44 462.222 1109.52 462.901C1108.59 463.58 1110.48 467.097 1115.66 467.097C1120.84 467.097 1123.65 466.017 1125.65 464.598C1127.1 463.58 1127.84 461.575 1129.54 460.217C1129.54 460.217 1142.59 460.618 1145.8 459.754C1149.01 458.891 1150.39 461.636 1154.37 452.536C1158.32 443.435 1158.66 435.414 1158.66 435.414L1151.44 431.311H1151.41Z" fill="#FFC9B6"/>
<path d="M1161.69 440.934C1164.31 431.555 1168.38 419.277 1168.38 419.277L1160.36 414.033C1160.36 414.033 1155.98 416.254 1153.73 419.277C1151.44 422.27 1147.25 436.399 1147.22 436.46C1151.23 439.73 1156.6 440.995 1161.72 440.934H1161.69Z" fill="#352120"/>
<path d="M1149.78 557.701C1149.78 557.701 1150.02 559.86 1150.7 562.081C1151.38 564.333 1150.55 567.449 1150.55 567.449C1150.55 567.449 1150.06 568.837 1147.99 569.238C1146.05 569.609 1144.47 569.146 1144.47 569.146C1144.47 569.146 1142.56 571.46 1140.09 573.218C1137.59 574.976 1132.1 576.334 1130.62 576.118C1128.21 575.748 1126.92 573.866 1127.1 572.663C1127.29 571.46 1130.13 568.097 1132.47 566.647C1133.98 565.691 1137.44 562.513 1138.46 561.403C1140.15 559.552 1141.42 557.546 1141.42 557.546L1149.78 557.701Z" fill="#352120"/>
<path d="M1153.08 462.006C1153.08 462.006 1146.11 479.807 1145.03 487.025C1143.95 494.244 1141.36 501.772 1140.03 510.841C1138.73 519.911 1138.43 527.5 1139.01 536.354C1139.26 539.871 1139.69 553.784 1139.01 558.782C1143.3 561.281 1150.7 562.113 1152.96 558.782C1153.51 556.437 1156.9 540.364 1157.49 533.824C1158.08 527.315 1157.49 519.88 1157.49 519.88C1157.49 519.88 1166.5 501.432 1168.78 489.432C1170.42 480.917 1169.86 471.508 1169.86 471.508L1153.08 462.006Z" fill="#53B7B7"/>
<path d="M1185.63 575.993C1185.63 575.993 1186.92 580.775 1186.77 583.551C1186.61 586.328 1185.93 586.976 1185.1 587.901C1184.27 588.827 1183.28 588.426 1183.28 588.426C1183.28 588.426 1182.91 594.133 1180.2 596.446C1177.48 598.76 1172.58 598.976 1170.32 598.143C1168.07 597.31 1169.55 593.207 1171.74 589.228C1173.93 585.217 1176.77 580.898 1177.45 577.289C1182.85 576.548 1185.59 576.024 1185.59 576.024L1185.63 575.993Z" fill="#352120"/>
<path d="M1178.59 466.107C1178.59 466.107 1182.91 472.308 1185.63 480.822C1187.54 486.807 1187.23 498.129 1187.11 503.343C1186.98 509.512 1184.58 527.899 1184.58 527.899C1184.58 527.899 1188.56 534.532 1187.94 548.352C1187.32 562.204 1187.94 576.179 1187.94 576.179C1187.94 576.179 1183.56 579.603 1180.04 580.22C1174.49 581.176 1172.45 576.703 1172.45 576.703C1172.45 576.703 1170.26 549 1168.07 542.306C1165.88 535.611 1165.05 527.93 1165.05 527.93L1160.54 495.013C1160.54 495.013 1151.66 489.213 1156.19 474.56C1159.06 465.397 1178.53 466.107 1178.53 466.107H1178.59Z" fill="#2EA09D"/>
<path d="M1189.64 431.96C1185.22 423.199 1171.99 415.455 1162.46 416.844C1157.89 420.484 1155.79 424.34 1154.13 428.69C1152.65 432.639 1152 437.297 1152.49 441.4C1153.94 453.771 1150.98 465.802 1149.93 470.522C1154.99 475.797 1161.69 479.222 1169.09 480.517C1173.1 481.227 1184.21 479.684 1184.21 476.908C1184.21 466.913 1185.63 458.707 1189.08 449.359C1190.93 444.362 1192.13 436.988 1189.64 431.96Z" fill="#3F2A28"/>
<path d="M1163.2 416.81C1163.2 416.81 1158.82 423.936 1160.58 427.484C1162.46 431.309 1166.5 432.543 1172.51 430.137C1178.53 427.731 1181.8 423.504 1181.8 423.504C1181.8 423.504 1175.23 416.594 1163.2 416.81Z" fill="#352120"/>
<path d="M1165.2 412.801C1165.2 412.801 1166.13 418.848 1163.91 420.915C1161.69 423.012 1161.69 427.3 1166.1 428.75C1171.47 430.509 1175.26 426.622 1178.59 423.969C1177.14 420.915 1176.43 420.915 1176.43 412.338C1176.43 405.335 1165.2 412.801 1165.2 412.801Z" fill="#F9BBA7"/>
<path d="M1162.43 418.17C1162.43 418.17 1157.95 424.124 1154.34 434.273C1150.92 443.929 1151.04 449.883 1150.98 452.444C1150.92 455.004 1149.9 470.522 1149.9 470.522C1149.9 470.522 1155.11 476.29 1166.5 477.062C1177.88 477.833 1184.18 476.907 1184.18 476.907L1184.64 467.097C1184.64 467.097 1174.43 467.868 1172.45 464.012C1170.48 460.156 1167.76 449.791 1169.92 442.14C1172.08 434.458 1182.39 423.599 1182.39 423.599L1179.67 421.656C1179.67 421.656 1176.31 425.728 1173.56 429.214C1169.95 433.81 1166.5 439.826 1166.5 439.826C1166.5 439.826 1159.19 436.494 1157.71 434.798C1158.6 430.232 1164.62 420.854 1164.62 420.854L1162.43 418.17Z" fill="#2EA09D"/>
<path d="M1174.92 397.932C1171.59 394.26 1162.83 392.749 1159.68 398.117C1157.31 402.158 1157.21 409.377 1157.86 412.709C1159.22 419.681 1164.93 423.814 1171.5 418.477C1177.79 413.387 1180.63 404.256 1174.89 397.932H1174.92Z" fill="#FFC9B6"/>
<path d="M1157.52 400.77C1157.52 400.77 1160.85 403.608 1165.48 404.812C1170.11 406.046 1173.5 406.663 1173.5 406.663L1176.49 415.424C1176.49 415.424 1181.49 407.434 1179.7 400.832C1178.01 394.6 1171.71 392.009 1165.48 391.67C1159.25 391.361 1157.52 395.896 1157.52 400.739V400.77Z" fill="#352120"/>
<path d="M1171.53 408.822C1171.53 408.822 1173.44 405.922 1175.17 408.112C1176.86 410.333 1173.38 412.493 1173.38 412.493L1171.56 408.822H1171.53Z" fill="#FFC9B6"/>
<path d="M1180.07 403.885C1180.07 406.97 1174 409.469 1166.5 409.469C1159 409.469 1152.96 406.97 1152.96 403.885C1152.96 400.8 1159.03 398.301 1166.5 398.301C1173.96 398.301 1180.07 400.8 1180.07 403.885Z" fill="#FBB63D"/>
<path d="M1156.38 402.003C1156.38 402.003 1157.86 405.643 1165.45 407C1172.08 408.172 1175.14 408.142 1175.14 408.142L1178.1 412.707C1178.1 412.707 1181.21 408.419 1181.74 403.915C1182.54 397.19 1181.31 390.465 1168.94 389.015C1158.01 387.719 1156.35 402.033 1156.35 402.033L1156.38 402.003Z" fill="#FFC553"/>
<path d="M1163.2 397.87C1163.2 397.87 1166.53 393.52 1173.59 393.705C1179.89 393.86 1181.8 398.61 1181.8 398.61C1181.8 398.61 1182.02 394.476 1177.67 392.286C1173.35 390.096 1168.01 391.577 1166.1 393.243C1164.18 394.908 1163.2 397.901 1163.2 397.901V397.87Z" fill="#FBB63D"/>
<path d="M1158.82 394.661C1158.82 394.661 1160.08 391.977 1163.2 390.558C1164.52 389.971 1166.22 389.632 1167.76 389.539C1173.56 389.169 1177.67 392.254 1177.67 392.254C1177.67 392.254 1176.77 389.786 1173.1 388.429C1168.53 386.732 1163.38 387.442 1161.38 389.015C1158.79 391.051 1158.79 394.691 1158.79 394.691L1158.82 394.661Z" fill="#FBB63D"/>
<path d="M1149.72 469.255L1148.82 473.605C1148.82 473.605 1157.74 481.718 1169.15 481.718C1181.95 481.718 1184.64 478.078 1184.64 478.078L1184.18 473.543C1181.95 474.684 1178.13 477.862 1167.76 476.443C1154.93 474.684 1149.72 469.286 1149.72 469.286V469.255Z" fill="#53B7B7"/>
<path d="M1142.56 450.498L1141.17 451.269L1151.75 476.103L1153.11 475.332L1142.56 450.498Z" fill="#72BEF7"/>
<path d="M1122.94 440.748L1124.3 439.977L1142.56 450.497L1141.17 451.268L1122.94 440.748Z" fill="#88D2FF"/>
<path d="M1133.34 470.486L1155.08 483.073L1142.47 453.457L1120.72 440.902L1133.34 470.486Z" fill="#3F2A28"/>
<path d="M1144.13 452.533L1142.47 453.459L1155.08 483.075L1156.72 482.149L1144.13 452.533Z" fill="#352120"/>
<path d="M1120.72 440.903L1122.35 439.977L1144.13 452.533L1142.47 453.459L1120.72 440.903Z" fill="#563B3A"/>
<path d="M1192.01 440.906H1180.97C1180.97 440.906 1179.27 448.711 1178.59 455.343C1178.01 461.143 1178.01 468.825 1178.01 468.825C1178.01 468.825 1175.63 467.807 1168.72 470.922C1166 472.156 1157.77 474.007 1157.77 474.007C1156.66 472.897 1154.93 471.539 1153.6 469.257C1152.25 466.943 1151.6 466.172 1151.17 467.221C1150.58 468.67 1152.15 471.2 1151.44 472.187C1151.1 472.681 1148.17 473.329 1146.45 472.743C1144.72 472.156 1142.19 470.336 1140.55 470.676C1137.96 471.231 1139.94 473.853 1141.94 475.951C1145.24 479.406 1151.44 479.128 1154.62 480.116C1155.86 480.486 1158.17 480.733 1160.54 480.856C1160.82 480.949 1161.13 481.041 1161.47 481.072C1168.6 481.596 1177.79 481.411 1181.8 479.745C1186.09 477.956 1185.26 477.123 1185.93 476.105C1190.19 469.904 1189.67 467.807 1190.99 459.045C1192.32 450.469 1191.98 440.906 1191.98 440.906H1192.01Z" fill="#FFC9B6"/>
<path d="M1176.43 456.083C1176.62 456.206 1180.26 457.41 1182.73 457.718C1186.3 458.15 1190.47 459.137 1193 457.841C1193.8 453.276 1195.4 441.522 1195.4 438.838C1195.4 430.447 1185.81 426.683 1185.81 426.683C1185.81 426.683 1180.07 429.953 1178.01 440.473C1177.45 446.365 1176.52 454.942 1176.43 456.083Z" fill="#352120"/>
<path d="M960.485 480.887L953.266 454.664L937.625 445.996V544.93L977.791 567.358L993.278 509.422L960.485 480.887Z" fill="#E0D5D5"/>
<path d="M1065.68 468.021L993.278 509.421L977.791 567.357L1050.2 525.956L1065.68 468.021Z" fill="#BBB4B4"/>
<path d="M983.005 561.65L996.733 510.193L996.949 510.07L1060.44 473.76L1046.71 525.217L1046.49 525.34L983.005 561.65ZM997.813 511.026L984.979 559.059L1045.6 524.384L1058.43 476.351L997.813 511.026Z" fill="#E0D5D5"/>
<path d="M1032.89 439.485L960.485 480.885L993.278 509.421L1065.68 468.021L1032.89 439.485Z" fill="white"/>
<path d="M1032.67 443.622L965.883 481.721L993.494 505.753L1060.28 467.684L1032.67 443.622Z" fill="#7A6D6D"/>
<path d="M1010.03 404.595L937.625 445.996L953.266 454.664L1025.67 413.264L1010.03 404.595Z" fill="white"/>
<path d="M1025.67 413.263L953.266 454.663L960.485 480.885L1032.89 439.485L1025.67 413.263Z" fill="#BBB4B4"/>
<path d="M977.544 443.558L956.69 455.62L962.582 477.061L983.437 464.998L977.544 443.558Z" fill="#2EA09D"/>
<path d="M1000.59 430.293L979.735 442.355L985.627 463.796L1006.48 451.734L1000.59 430.293Z" fill="#2EA09D"/>
<path d="M1023.57 417.089L1002.72 429.152L1008.64 450.592L1029.5 438.561L1023.57 417.089Z" fill="#2EA09D"/>
<path d="M995.406 476.258L975.879 487.487L993.555 502.82L1013.08 491.621L995.406 476.258Z" fill="#352120"/>
<path d="M986.151 482.983L978.501 487.394L985.658 493.595L993.309 489.214L986.151 482.983Z" fill="#E0D5D5"/>
<path d="M995.344 477.677L987.694 482.089L994.851 488.29L1002.5 483.909L995.344 477.677Z" fill="#E0D5D5"/>
<path d="M994.358 490.234L986.707 494.615L993.864 500.846L1001.51 496.435L994.358 490.234Z" fill="#E0D5D5"/>
<path d="M1003.55 484.926L995.9 489.306L1003.06 495.538L1010.71 491.127L1003.55 484.926Z" fill="#E0D5D5"/>
<path d="M973.627 479.836L969.647 482.119L970.788 483.045L974.799 480.762L973.627 479.836Z" fill="#352120"/>
<path d="M978.778 476.905L974.799 479.188L975.94 480.113L979.951 477.831L978.778 476.905Z" fill="#352120"/>
<path d="M983.745 474.036L979.766 476.319L980.907 477.244L984.918 474.962L983.745 474.036Z" fill="#352120"/>
<path d="M988.897 471.105L984.918 473.388L986.059 474.313L990.07 472.03L988.897 471.105Z" fill="#352120"/>
<path d="M976.804 484.372C976.681 485.205 975.755 485.76 974.737 485.606C973.719 485.452 973.01 484.65 973.133 483.817C973.256 482.984 974.182 482.428 975.2 482.583C976.218 482.737 976.928 483.539 976.804 484.372Z" fill="white"/>
<path d="M982.079 481.377C981.956 482.21 981.03 482.765 980.012 482.611C978.994 482.457 978.285 481.655 978.408 480.822C978.532 479.989 979.457 479.433 980.475 479.588C981.493 479.742 982.203 480.544 982.079 481.377Z" fill="white"/>
<path d="M987.2 478.449C987.077 479.282 986.151 479.837 985.133 479.683C984.115 479.528 983.406 478.726 983.529 477.893C983.653 477.06 984.578 476.505 985.596 476.659C986.614 476.814 987.324 477.616 987.2 478.449Z" fill="white"/>
<path d="M992.352 475.363C992.229 476.196 991.303 476.752 990.285 476.597C989.267 476.443 988.558 475.641 988.681 474.808C988.805 473.975 989.73 473.42 990.748 473.574C991.766 473.728 992.476 474.53 992.352 475.363Z" fill="white"/>
<path d="M1017.12 463.763L997.597 474.961L1015.27 490.324L1034.8 479.126L1017.12 463.763Z" fill="#352120"/>
<path d="M1007.87 470.487L1000.22 474.868L1007.38 481.1L1015.03 476.719L1007.87 470.487Z" fill="#E0D5D5"/>
<path d="M1017.06 465.182L1009.41 469.563L1016.57 475.794L1024.22 471.414L1017.06 465.182Z" fill="#E0D5D5"/>
<path d="M1016.08 477.738L1008.43 482.119L1015.58 488.351L1023.23 483.939L1016.08 477.738Z" fill="#E0D5D5"/>
<path d="M1025.27 472.43L1017.62 476.811L1024.78 483.043L1032.43 478.631L1025.27 472.43Z" fill="#E0D5D5"/>
<path d="M995.345 467.342L991.365 469.625L992.507 470.551L996.517 468.268L995.345 467.342Z" fill="#352120"/>
<path d="M1000.5 464.41L996.517 466.693L997.659 467.618L1001.67 465.335L1000.5 464.41Z" fill="#352120"/>
<path d="M1005.46 461.542L1001.48 463.825L1002.63 464.751L1006.64 462.468L1005.46 461.542Z" fill="#352120"/>
<path d="M1010.62 458.611L1006.64 460.894L1007.78 461.819L1011.79 459.506L1010.62 458.611Z" fill="#352120"/>
<path d="M998.522 471.847C998.399 472.68 997.473 473.236 996.455 473.081C995.437 472.927 994.728 472.125 994.851 471.292C994.975 470.459 995.9 469.904 996.918 470.058C997.936 470.212 998.646 471.015 998.522 471.847Z" fill="white"/>
<path d="M1003.8 468.883C1003.67 469.716 1002.75 470.271 1001.73 470.117C1000.71 469.963 1000 469.161 1000.13 468.328C1000.25 467.495 1001.18 466.94 1002.19 467.094C1003.21 467.248 1003.92 468.05 1003.8 468.883Z" fill="white"/>
<path d="M1008.92 465.955C1008.8 466.788 1007.87 467.343 1006.85 467.189C1005.83 467.034 1005.12 466.232 1005.25 465.399C1005.37 464.566 1006.3 464.011 1007.31 464.165C1008.33 464.32 1009.04 465.122 1008.92 465.955Z" fill="white"/>
<path d="M1014.07 462.871C1013.95 463.704 1013.02 464.259 1012 464.105C1010.99 463.951 1010.28 463.149 1010.4 462.316C1010.52 461.483 1011.45 460.927 1012.47 461.082C1013.48 461.236 1014.19 462.038 1014.07 462.871Z" fill="white"/>
<path d="M1038.84 451.117L1019.31 462.347L1036.99 477.679L1056.52 466.481L1038.84 451.117Z" fill="#352120"/>
<path d="M1029.59 457.842L1021.94 462.254L1029.09 468.454L1036.74 464.074L1029.59 457.842Z" fill="#E0D5D5"/>
<path d="M1038.78 452.537L1031.13 456.948L1038.29 463.149L1045.94 458.768L1038.78 452.537Z" fill="#E0D5D5"/>
<path d="M1037.79 465.093L1030.14 469.474L1037.3 475.705L1044.95 471.294L1037.79 465.093Z" fill="#E0D5D5"/>
<path d="M1046.99 459.785L1039.37 464.166L1046.49 470.397L1054.14 465.986L1046.99 459.785Z" fill="#E0D5D5"/>
<path d="M1017.06 454.695L1013.08 456.978L1014.22 457.904L1018.24 455.621L1017.06 454.695Z" fill="#352120"/>
<path d="M1022.25 451.764L1018.24 454.047L1019.38 454.973L1023.39 452.69L1022.25 451.764Z" fill="#352120"/>
<path d="M1027.18 448.895L1023.2 451.178L1024.34 452.104L1028.35 449.821L1027.18 448.895Z" fill="#352120"/>
<path d="M1032.33 445.964L1028.35 448.247L1029.49 449.172L1033.51 446.89L1032.33 445.964Z" fill="#352120"/>
<path d="M1020.24 459.231C1020.12 460.064 1019.19 460.619 1018.17 460.465C1017.16 460.311 1016.45 459.509 1016.57 458.676C1016.69 457.843 1017.62 457.288 1018.64 457.442C1019.65 457.596 1020.36 458.398 1020.24 459.231Z" fill="white"/>
<path d="M1025.52 456.236C1025.39 457.069 1024.47 457.625 1023.45 457.47C1022.43 457.316 1021.72 456.514 1021.84 455.681C1021.97 454.848 1022.89 454.293 1023.91 454.447C1024.93 454.601 1025.64 455.403 1025.52 456.236Z" fill="white"/>
<path d="M1030.64 453.308C1030.51 454.141 1029.59 454.696 1028.57 454.542C1027.55 454.387 1026.84 453.585 1026.97 452.752C1027.09 451.919 1028.01 451.364 1029.03 451.518C1030.05 451.673 1030.76 452.475 1030.64 453.308Z" fill="white"/>
<path d="M1035.79 450.223C1035.67 451.056 1034.74 451.611 1033.72 451.457C1032.7 451.302 1031.99 450.5 1032.12 449.667C1032.24 448.834 1033.17 448.279 1034.18 448.433C1035.2 448.588 1035.91 449.39 1035.79 450.223Z" fill="white"/>
<path d="M951.076 462.964L940.772 457.01V473.082L951.076 479.036V462.964Z" fill="white"/>
<path d="M1077.13 443.898C1078.33 448.217 1080.77 452.752 1079.32 453.832C1077.87 454.942 1073.15 457.287 1069.38 457.811C1067.47 458.058 1065.9 450.006 1067.41 443.404C1068.92 436.926 1073.52 431.867 1073.52 431.867C1073.52 431.867 1075.92 439.548 1077.13 443.898Z" fill="#F8B49F"/>
<path d="M1044.7 578.062C1044.7 578.062 1033.14 573.62 1026.56 573.003C1021.38 572.51 1020.21 573.373 1020.46 575.996C1020.7 578.618 1021.69 581.302 1025.05 583.554C1028.51 585.867 1032.95 586.33 1036.31 586.114C1036.44 586.33 1036.44 587.101 1036.53 587.718C1037.21 588.428 1041 589.754 1043.04 589.6C1048.28 589.199 1049.21 587.256 1049.24 582.968C1049.3 577.507 1049.24 576.674 1049.24 576.674L1044.73 578.062H1044.7Z" fill="#352120"/>
<path d="M1068.58 565.139C1068.58 565.139 1057.01 560.696 1050.44 560.079C1045.26 559.586 1044.09 560.45 1044.33 563.072C1044.58 565.694 1045.57 568.378 1048.93 570.63C1052.39 572.944 1056.83 573.406 1060.19 573.19C1060.31 573.406 1060.31 574.178 1060.41 574.795C1061.08 575.504 1064.88 576.831 1066.92 576.676C1072.16 576.275 1073.09 574.332 1073.12 570.044C1073.18 564.583 1073.12 563.75 1073.12 563.75L1068.61 565.139H1068.58Z" fill="#352120"/>
<path d="M1071.7 493.598C1074.91 485.762 1072.99 477.278 1072.07 472.466C1064.73 479.16 1053.4 478.142 1053.4 478.142C1053.4 478.142 1053.84 494.122 1052.97 504.334C1051.52 521.116 1054.27 535.214 1055.13 541.723C1055.93 547.554 1056.64 565.107 1056.64 565.107C1056.64 565.107 1058.31 571 1064.02 571.586C1068.92 572.11 1073.76 568.408 1073.76 568.408C1073.76 568.408 1077.1 532.222 1070.77 522.504C1074.87 510.596 1072.9 497.547 1071.67 493.598H1071.7Z" fill="#352120"/>
<path d="M1053.43 478.142C1048.78 478.635 1045.04 477.247 1038.6 475.273C1038.16 478.049 1035.26 484.25 1034.86 487.89C1033.38 501.001 1032.49 504.827 1032.02 522.503C1031.87 528.858 1030.73 534.627 1031.32 539.44C1031.62 541.877 1031.47 547.245 1031.47 554.279C1031.5 568.963 1031.87 577.261 1031.87 577.261C1031.87 577.261 1034.52 581.766 1038.44 582.722C1045.97 584.573 1049.21 580.316 1049.21 580.316C1049.21 580.316 1050.2 562.793 1049.86 547.954C1049.73 543.419 1048.65 541.013 1047.97 537.558C1055.32 523.398 1058.46 500.508 1058.46 500.508C1058.46 500.508 1064.05 498.101 1065.99 490.111C1067.47 484.003 1068.09 477.525 1066.33 472.743C1062.07 475.735 1056.67 477.771 1053.4 478.111L1053.43 478.142Z" fill="#3F2A28"/>
<path d="M1059.85 418.139C1059.85 418.139 1070.59 412.432 1075.09 425.513C1079.56 438.593 1079.32 439.086 1079.32 439.086C1079.32 439.086 1073.8 447.046 1064.39 446.83C1057.48 445.627 1059.85 418.139 1059.85 418.139Z" fill="#F2EBEB"/>
<path d="M1040.6 430.325C1034.4 435.724 1033.38 437.76 1033.41 445.688C1033.44 455.036 1037.82 464.723 1037.18 474.471C1034.12 478.327 1033.41 479.345 1035.88 482.461C1038.01 485.114 1045.94 488.261 1050.04 488.261C1060.65 488.261 1068.18 482.986 1073.46 476.723C1074.78 475.15 1076.66 472.774 1072.31 470.337C1072.65 459.725 1073.52 438.624 1071.85 431.312C1070.34 424.68 1067.35 417.8 1057.72 420.823C1053.16 422.243 1045.88 425.759 1040.6 430.356V430.325Z" fill="white"/>
<path d="M1045.66 418.047C1045.66 418.047 1047.42 421.348 1047.51 424.155C1047.6 426.993 1052.82 428.783 1056.46 426.315C1060.1 423.847 1060.34 423.261 1059.85 418.016C1059.36 412.772 1045.66 418.016 1045.66 418.016V418.047Z" fill="#F8B49F"/>
<path d="M1052.17 392.258C1040.01 388.278 1038.04 406.078 1039.95 415.703C1041.87 425.328 1053.4 422.089 1058.52 415.703C1063.65 409.318 1065.31 396.577 1052.14 392.258H1052.17Z" fill="#FFC8B5"/>
<path d="M1048.22 406.232C1048.22 406.232 1048.22 411.138 1050.84 415.672C1052.91 419.22 1058.4 422.521 1058.4 422.521C1058.4 422.521 1065.13 414.654 1064.66 407.436C1064.17 400.217 1048.25 406.232 1048.25 406.232H1048.22Z" fill="#352120"/>
<path d="M1059.67 404.011C1058.93 408.33 1052.85 410.859 1046.15 409.687C1039.43 408.515 1034.62 404.072 1035.36 399.753C1036.1 395.434 1042.17 392.905 1048.87 394.077C1055.56 395.249 1060.41 399.692 1059.67 404.011Z" fill="#FBB63D"/>
<path d="M1039.49 399.444C1039.49 399.444 1040.35 386.487 1054.02 388.585C1067.87 390.683 1066.08 407.342 1064.29 410.642C1062.5 413.943 1059.88 416.072 1054.48 415.085C1049.76 414.221 1046.99 409.409 1046.99 409.409C1046.99 409.409 1038.75 403.732 1039.52 399.444H1039.49Z" fill="#FFC553"/>
<path d="M1043.65 390.93C1043.65 390.93 1048.59 393.954 1050.87 396.946C1053.16 399.938 1052.94 400.432 1053.56 404.412C1053.99 407.25 1056.49 411.476 1056.49 411.476C1056.49 411.476 1055.72 406.263 1054.76 400.895C1053.96 396.452 1048.96 392.565 1047.17 391.208C1044.52 389.203 1043.69 390.93 1043.69 390.93H1043.65Z" fill="#FBB63D"/>
<path d="M1051.98 388.4C1051.98 388.4 1056.92 391.362 1059.17 394.354C1061.45 397.347 1061.24 397.84 1061.86 401.82C1062.29 404.658 1062.97 409.532 1062.97 409.532C1062.97 409.532 1064.02 403.671 1063.06 398.303C1062.26 393.861 1057.32 389.912 1055.47 388.616C1053.62 387.321 1052.01 388.4 1052.01 388.4H1051.98Z" fill="#FBB63D"/>
<path d="M1040.6 430.326C1043.07 427.211 1043.65 424.743 1048.22 425.483C1049.12 425.637 1056.8 424.681 1058.4 422.521C1060.01 420.393 1060.96 418.943 1060.96 418.943C1060.96 418.943 1064.05 421.781 1062.35 425.483C1060.04 430.542 1056.46 430.697 1050.84 430.326C1047.7 430.141 1040.6 430.326 1040.6 430.326Z" fill="#F2EBEB"/>
<path d="M1043.56 452.876C1042.61 448.187 1030.48 446.984 1030.48 446.984C1030.48 446.984 1029.71 453.401 1029.09 458.183C1028.48 462.964 1027.46 467.777 1027.46 467.777C1027.46 467.777 1025.39 467.067 1019.72 468.332C1015.92 469.165 1012.34 469.535 1009.41 469.535C1006.67 468.455 1003.55 467.283 1002.04 466.79C998.923 465.741 996.085 468.27 993.062 470.43C990.038 472.589 991.334 473.947 993.062 475.212C994.789 476.446 998.152 474.625 1000.47 475.89C1002.53 477.032 1005.96 476.415 1007.87 475.52C1007.87 475.551 1007.87 475.582 1007.87 475.613C1011.51 476.6 1018.76 478.667 1024.37 478.79C1028.75 478.883 1031.41 477.587 1034.25 477.371C1035.54 477.268 1036.54 476.456 1037.24 474.934C1038.41 472.343 1044.58 457.535 1043.59 452.846L1043.56 452.876Z" fill="#FFC8B5"/>
<path d="M1037.52 433.347C1033.81 434.15 1030.36 434.705 1028.75 445.718C1027.15 456.731 1026.5 461.822 1026.5 461.822C1026.5 461.822 1032.8 465.462 1036.37 465.585C1039.95 465.678 1043.62 464.598 1043.62 464.598C1043.62 464.598 1048.25 450.346 1047.48 445.718C1045.63 434.396 1040.6 432.669 1037.49 433.347H1037.52Z" fill="#F2EBEB"/>
</svg>
