<svg  viewBox="0 0 18 18" fill="current" xmlns="http://www.w3.org/2000/svg">
<path d="M9.83329 2.33335C11.3804 2.33335 12.8641 2.94794 13.9581 4.0419C15.052 5.13586 15.6666 6.61959 15.6666 8.16669C15.6666 8.3877 15.7544 8.59966 15.9107 8.75594C16.067 8.91222 16.2789 9.00002 16.5 9.00002C16.721 9.00002 16.9329 8.91222 17.0892 8.75594C17.2455 8.59966 17.3333 8.3877 17.3333 8.16669C17.3333 6.17756 16.5431 4.26991 15.1366 2.86339C13.7301 1.45686 11.8224 0.666687 9.83329 0.666687C9.61228 0.666687 9.40032 0.754484 9.24404 0.910765C9.08776 1.06704 8.99996 1.27901 8.99996 1.50002C8.99996 1.72103 9.08776 1.933 9.24404 2.08928C9.40032 2.24556 9.61228 2.33335 9.83329 2.33335ZM17.125 12.2584C17.0791 12.1246 17 12.0047 16.895 11.9099C16.7901 11.8151 16.6627 11.7486 16.525 11.7167L11.525 10.575C11.3892 10.5442 11.248 10.548 11.1141 10.5858C10.9801 10.6236 10.8578 10.6944 10.7583 10.7917C10.6416 10.9 10.6333 10.9084 10.0916 11.9417C8.29429 11.1135 6.85412 9.6674 6.03329 7.86669C7.09163 7.33335 7.09996 7.33335 7.20829 7.20835C7.30555 7.10882 7.37633 6.98651 7.41418 6.85259C7.45203 6.71867 7.45573 6.57741 7.42496 6.44169L6.28329 1.50002C6.25133 1.36227 6.18484 1.23491 6.09008 1.12995C5.99532 1.02498 5.8754 0.945856 5.74163 0.90002C5.54701 0.830512 5.34605 0.780271 5.14163 0.75002C4.931 0.701183 4.71607 0.67327 4.49996 0.666687C3.4833 0.666687 2.50827 1.07055 1.78938 1.78944C1.07049 2.50833 0.666626 3.48336 0.666626 4.50002C0.671036 7.90228 2.02453 11.1639 4.43029 13.5697C6.83605 15.9754 10.0977 17.3289 13.5 17.3334C14.0034 17.3334 14.5018 17.2342 14.9669 17.0416C15.432 16.8489 15.8546 16.5666 16.2105 16.2106C16.5665 15.8546 16.8489 15.4321 17.0415 14.967C17.2341 14.5019 17.3333 14.0034 17.3333 13.5C17.3335 13.2879 17.3168 13.0761 17.2833 12.8667C17.2483 12.6597 17.1953 12.4562 17.125 12.2584Z" fill="current"/>
</svg>
