<svg  viewBox="0 0 20 20" fill="none" xmlns="http://www.w3.org/2000/svg">
<path d="M7.81209 6.32852e-09C9.26832 -5.85967e-05 10.6956 0.406889 11.9328 1.17492C13.17 1.94295 14.168 3.04149 14.814 4.34657C15.46 5.65165 15.7285 7.11131 15.589 8.56084C15.4495 10.0104 14.9076 11.3921 14.0246 12.55L18.9652 17.4927C19.152 17.6802 19.2605 17.9317 19.2686 18.1962C19.2767 18.4608 19.1837 18.7185 19.0087 18.917C18.8337 19.1155 18.5896 19.2399 18.3262 19.265C18.0627 19.2901 17.7996 19.214 17.5902 19.0521L17.4923 18.9656L12.5496 14.025C11.5631 14.7772 10.4117 15.2836 9.19067 15.5025C7.96961 15.7213 6.71399 15.6462 5.52771 15.2834C4.34143 14.9206 3.2586 14.2806 2.36881 13.4162C1.47902 12.5518 0.807863 11.488 0.410867 10.3127C0.0138716 9.13742 -0.0975463 7.8845 0.0858332 6.65762C0.269213 5.43073 0.742117 4.26515 1.46542 3.25732C2.18871 2.24949 3.14161 1.42839 4.24526 0.861965C5.34891 0.295537 6.57157 6.5474e-05 7.81209 6.32852e-09V6.32852e-09ZM7.81209 2.08333C6.29262 2.08333 4.83538 2.68694 3.76096 3.76137C2.68653 4.83579 2.08292 6.29303 2.08292 7.8125C2.08292 9.33197 2.68653 10.7892 3.76096 11.8636C4.83538 12.9381 6.29262 13.5417 7.81209 13.5417C9.33156 13.5417 10.7888 12.9381 11.8632 11.8636C12.9376 10.7892 13.5413 9.33197 13.5413 7.8125C13.5413 6.29303 12.9376 4.83579 11.8632 3.76137C10.7888 2.68694 9.33156 2.08333 7.81209 2.08333Z" fill="current"/>
</svg>
