<svg  viewBox="0 0 21 21" fill="none" xmlns="http://www.w3.org/2000/svg">
<g id="material-symbols:star-rate-rounded">
<path id="Vector" d="M10.3175 14.5288L7.23414 16.883C7.08136 17.008 6.9147 17.0671 6.73414 17.0605C6.55359 17.0538 6.39386 17.0016 6.25498 16.9038C6.11609 16.8066 6.00859 16.6746 5.93248 16.508C5.85636 16.3413 5.85275 16.1608 5.92164 15.9663L7.10914 12.1121L4.08831 9.96631C3.92164 9.8552 3.81748 9.70937 3.77581 9.52881C3.73414 9.34826 3.74109 9.18159 3.79664 9.02881C3.8522 8.87604 3.94942 8.74048 4.08831 8.62215C4.2272 8.50381 4.39386 8.44492 4.58831 8.44548H8.31748L9.52581 4.44548C9.59525 4.25104 9.70303 4.10159 9.84914 3.99715C9.99525 3.8927 10.1514 3.84076 10.3175 3.84131C10.4841 3.84131 10.6405 3.89354 10.7866 3.99798C10.9328 4.10242 11.0403 4.25159 11.1091 4.44548L12.3175 8.44548H16.0466C16.2411 8.44548 16.4078 8.50465 16.5466 8.62298C16.6855 8.74131 16.7828 8.87659 16.8383 9.02881C16.8939 9.18159 16.9008 9.34826 16.8591 9.52881C16.8175 9.70937 16.7133 9.8552 16.5466 9.96631L13.5258 12.1121L14.7133 15.9663C14.7828 16.1608 14.7794 16.3413 14.7033 16.508C14.6272 16.6746 14.5194 16.8066 14.38 16.9038C14.2411 17.001 14.0814 17.0533 13.9008 17.0605C13.7203 17.0677 13.5536 17.0085 13.4008 16.883L10.3175 14.5288Z" fill="current"/>
</g>
</svg>
