<svg  viewBox="0 0 30 30" fill="current" xmlns="http://www.w3.org/2000/svg">
<path d="M7.353 0.375015C5.247 -0.0404846 3.1725 1.31252 2.7495 3.40952C1.092 11.592 1.092 18.405 2.7495 26.5905C3.12 28.428 4.755 29.7 6.582 29.7C6.837 29.7 7.095 29.676 7.3545 29.625C9.4725 29.2065 10.848 27.168 10.4235 25.071C8.9565 17.823 8.9565 12.174 10.4235 4.92601C10.8465 2.83202 9.471 0.793515 7.353 0.375015ZM25.5 3.00002H12.654C12.7736 3.71583 12.765 4.44722 12.6285 5.16002C11.2245 12.24 11.2245 17.757 12.6285 24.84C12.7755 25.575 12.7635 26.2995 12.654 27H25.5C27.15 27 28.5 25.65 28.5 24V6.00002C28.5 4.35002 27.1515 3.00002 25.5 3.00002ZM18 21.75C17.4031 21.7498 16.8307 21.5125 16.4087 21.0903C15.9867 20.668 15.7498 20.0954 15.75 19.4985C15.7502 18.9016 15.9875 18.3292 16.4098 17.9072C16.832 17.4853 17.4046 17.2483 18.0015 17.2485C18.5984 17.2487 19.1708 17.486 19.5928 17.9083C20.0148 18.3305 20.2517 18.9031 20.2515 19.5C20.2513 20.0969 20.014 20.6694 19.5917 21.0913C19.1695 21.5133 18.5969 21.7502 18 21.75ZM25.5 13.5H15V7.50001H25.5V13.5Z" fill="current"/>
</svg>
